<svg width="26" height="26" viewBox="0 0 26 26" fill="none" xmlns="http://www.w3.org/2000/svg">
<path fill-rule="evenodd" clip-rule="evenodd" d="M7.98439 11.3633C8.19762 8.31746 9.00819 6.68084 9.91296 5.79991C10.8085 4.92797 11.9167 4.67963 13.0001 4.67963C14.0835 4.67963 15.1918 4.92797 16.0873 5.79991C16.992 6.68084 17.8026 8.31746 18.0158 11.3633L18.0231 11.4673L18.0231 11.4673C18.0909 12.4358 18.1309 13.0089 18.2044 13.3794C18.2779 13.7498 18.4092 14.1436 18.624 14.7878L18.6438 14.8474L19.7179 18.0696H13.0001H6.2823L7.35639 14.8474L7.37625 14.7878C7.59103 14.1436 7.72232 13.7498 7.79579 13.3794C7.86929 13.0089 7.90938 12.4358 7.97712 11.4672L7.98439 11.3633ZM13.0001 3.11963C11.684 3.11963 10.1159 3.42498 8.82468 4.6822C7.5427 5.93042 6.65613 7.99843 6.4282 11.2544C6.35135 12.3522 6.31708 12.8164 6.2656 13.0759C6.21373 13.3374 6.11717 13.6319 5.87645 14.3541L4.46014 18.603L4.11792 19.6296H5.20011H8.38554C8.54641 20.5815 8.99921 21.4673 9.69085 22.159C10.5685 23.0366 11.7589 23.5297 13.0001 23.5297C14.2413 23.5297 15.4317 23.0366 16.3094 22.159C17.001 21.4673 17.4538 20.5815 17.6147 19.6296H20.8001H21.8823L21.5401 18.603L20.1238 14.3541C19.8831 13.6319 19.7865 13.3374 19.7346 13.0759C19.6831 12.8164 19.6489 12.3522 19.572 11.2544C19.3441 7.99843 18.4575 5.93042 17.1755 4.6822C15.8843 3.42498 14.3163 3.11963 13.0001 3.11963ZM10.7939 21.0559C10.3965 20.6584 10.1174 20.1648 9.97917 19.6297L13.0001 19.6297H16.021C15.8829 20.1648 15.6037 20.6584 15.2063 21.0559C14.6212 21.641 13.8276 21.9697 13.0001 21.9697C12.1726 21.9697 11.3791 21.641 10.7939 21.0559Z" fill="#09101C"/>
</svg>
