<svg width="26" height="26" viewBox="0 0 26 26" fill="none" xmlns="http://www.w3.org/2000/svg">
<path fill-rule="evenodd" clip-rule="evenodd" d="M10.5297 6.49973C10.5297 5.13558 11.6355 4.02973 12.9997 4.02973C14.3638 4.02973 15.4697 5.13558 15.4697 6.49973C15.4697 7.86387 14.3638 8.96973 12.9997 8.96973C11.6355 8.96973 10.5297 7.86387 10.5297 6.49973ZM12.9997 2.46973C10.774 2.46973 8.96969 4.27402 8.96969 6.49973C8.96969 8.72543 10.774 10.5297 12.9997 10.5297C15.2254 10.5297 17.0297 8.72543 17.0297 6.49973C17.0297 4.27402 15.2254 2.46973 12.9997 2.46973ZM5.99158 21.9698H11.6987C11.9421 22.5267 12.2486 23.0497 12.6092 23.5298H5.19968H4.41968V22.7498C4.41968 18.4256 5.41538 15.7315 7.10161 14.1389C8.78437 12.5497 10.9868 12.2198 12.9997 12.2198C13.5263 12.2198 14.0659 12.2423 14.6058 12.3042C13.9758 12.7135 13.4086 13.2113 12.9218 13.7799C11.0659 13.7887 9.39786 14.116 8.17274 15.2731C7.01447 16.367 6.10491 18.3447 5.99158 21.9698ZM13.7797 18.8497C13.7797 16.0496 16.0496 13.7797 18.8497 13.7797C21.6498 13.7797 23.9197 16.0496 23.9197 18.8497C23.9197 21.6498 21.6498 23.9197 18.8497 23.9197C16.0496 23.9197 13.7797 21.6498 13.7797 18.8497ZM18.8497 12.2197C15.188 12.2197 12.2197 15.188 12.2197 18.8497C12.2197 22.5113 15.188 25.4797 18.8497 25.4797C22.5113 25.4797 25.4797 22.5113 25.4797 18.8497C25.4797 15.188 22.5113 12.2197 18.8497 12.2197ZM19.6297 18.0698H22.0997V19.6298H19.6297V22.0997H18.0697V19.6298H15.5997V18.0698H18.0697V15.5997H19.6297V18.0698Z" fill="#09101C"/>
</svg>
