<svg width="26" height="26" viewBox="0 0 26 26" fill="none" xmlns="http://www.w3.org/2000/svg">
<path fill-rule="evenodd" clip-rule="evenodd" d="M4.02973 13C4.02973 8.04598 8.04573 4.02997 12.9997 4.02997C15.1959 4.02997 17.2077 4.81922 18.767 6.12955L6.1293 18.7673C4.81897 17.208 4.02973 15.1961 4.02973 13ZM7.23239 19.8704C8.79172 21.1807 10.8036 21.97 12.9997 21.97C17.9537 21.97 21.9697 17.954 21.9697 13C21.9697 10.8038 21.1805 8.79196 19.8701 7.23263L7.23239 19.8704ZM12.9997 2.46997C7.18417 2.46997 2.46973 7.18441 2.46973 13C2.46973 18.8155 7.18417 23.53 12.9997 23.53C18.8153 23.53 23.5297 18.8155 23.5297 13C23.5297 7.18441 18.8153 2.46997 12.9997 2.46997Z" fill="#09101C"/>
</svg>
