<svg width="26" height="26" viewBox="0 0 26 26" fill="none" xmlns="http://www.w3.org/2000/svg">
<path fill-rule="evenodd" clip-rule="evenodd" d="M11.0497 2.46973C9.90091 2.46973 8.96966 3.40097 8.96966 4.54972C8.96966 4.83691 8.73685 5.06972 8.44967 5.06971L7.96217 5.06971L7.81938 5.06968C6.60592 5.06936 5.8189 5.06915 5.13855 5.28065C3.63986 5.74654 2.42132 7.01067 2.01077 8.52546C1.82443 9.21302 1.85219 9.96311 1.89475 11.1133L1.89959 11.2443C1.99705 13.8962 2.19743 15.9952 2.58144 17.6449C2.96624 19.2981 3.54948 20.5632 4.45815 21.4858C5.37385 22.4154 6.5437 22.9201 7.94892 23.1962C9.33887 23.4694 11.017 23.5297 12.9997 23.5297C14.9823 23.5297 16.6605 23.4694 18.0504 23.1962C19.4556 22.9201 20.6255 22.4154 21.5412 21.4858C22.4499 20.5632 23.0331 19.2981 23.4179 17.6449C23.8019 15.9952 24.0023 13.8962 24.0997 11.2444L24.1046 11.1134V11.1133C24.1471 9.96311 24.1749 9.21302 23.9886 8.52546C23.578 7.01067 22.3595 5.74654 20.8608 5.28065C20.1804 5.06915 19.3934 5.06936 18.18 5.06968L18.0372 5.06971L17.5497 5.06971C17.2625 5.06972 17.0297 4.83691 17.0297 4.54972C17.0297 3.40097 16.0984 2.46973 14.9497 2.46973H11.0497ZM10.5297 4.54972C10.5297 4.26254 10.7625 4.02973 11.0497 4.02973H14.9497C15.2369 4.02973 15.4697 4.26254 15.4697 4.54972C15.4697 5.69848 16.4009 6.62972 17.5497 6.62971L18.0372 6.62971C19.444 6.62969 19.9733 6.63841 20.3977 6.77033C21.3867 7.07778 22.2119 7.9339 22.4829 8.93354C22.5994 9.36343 22.5896 9.85919 22.5408 11.1871C22.4444 13.8096 22.2481 15.7894 21.8985 17.2913C21.5497 18.7897 21.0625 19.7487 20.4298 20.3911C19.8041 21.0263 18.9616 21.4273 17.7496 21.6655C16.5223 21.9067 14.9782 21.9697 12.9997 21.9697C11.0211 21.9697 9.47707 21.9067 8.24976 21.6655C7.03772 21.4273 6.19526 21.0263 5.56956 20.3911C4.93684 19.7487 4.4496 18.7897 4.10082 17.2913C3.75124 15.7894 3.55492 13.8096 3.45854 11.1871C3.40973 9.85919 3.39994 9.36343 3.51645 8.93354C3.78738 7.9339 4.61262 7.07778 5.60164 6.77033C6.02603 6.63841 6.55529 6.62969 7.96216 6.62971L8.44965 6.62971C9.59841 6.62972 10.5297 5.69848 10.5297 4.54972ZM9.87966 13.6497C9.87966 11.9266 11.2765 10.5297 12.9997 10.5297C14.7228 10.5297 16.1197 11.9266 16.1197 13.6497C16.1197 15.3728 14.7228 16.7697 12.9997 16.7697C11.2765 16.7697 9.87966 15.3728 9.87966 13.6497ZM12.9997 8.96969C10.415 8.96969 8.31966 11.065 8.31966 13.6497C8.31966 16.2344 10.415 18.3297 12.9997 18.3297C15.5843 18.3297 17.6797 16.2344 17.6797 13.6497C17.6797 11.065 15.5843 8.96969 12.9997 8.96969Z" />
</svg>
