<svg width="26" height="26" viewBox="0 0 26 26" fill="none" xmlns="http://www.w3.org/2000/svg">
<path fill-rule="evenodd" clip-rule="evenodd" d="M22.8796 5.20009C22.8796 4.0661 21.9476 3.08309 20.7448 3.16741C11.3217 3.828 3.82751 11.3222 3.16692 20.7453C3.0826 21.948 4.06561 22.8801 5.1996 22.8801H14.2996C15.4776 22.8801 16.2965 21.936 16.4936 20.9637C16.7153 19.87 17.2542 18.8562 18.055 18.0554C18.8557 17.2547 19.8695 16.7158 20.9632 16.4941C21.9355 16.297 22.8796 15.4781 22.8796 14.3001V5.20009ZM20.8539 4.72359C21.0836 4.70749 21.3196 4.89815 21.3196 5.20009V7.04026C17.6042 7.23254 14.0801 8.79327 11.4364 11.4369C8.79278 14.0806 7.23206 17.6047 7.03977 21.3201H5.1996C4.89766 21.3201 4.707 21.0841 4.7231 20.8544C5.32932 12.2069 12.2064 5.32981 20.8539 4.72359ZM8.6021 21.3201H10.9468C11.1342 18.64 12.2821 16.1067 14.1942 14.1946C16.1062 12.2826 18.6395 11.1346 21.3196 10.9473V8.60259C18.0183 8.79324 14.8905 10.189 12.5395 12.54C10.1885 14.891 8.79275 18.0188 8.6021 21.3201ZM21.3196 12.5117C19.0538 12.696 16.9166 13.6784 15.2972 15.2977C13.6779 16.9171 12.6955 19.0543 12.5113 21.3201H14.2996C14.5575 21.3201 14.8765 21.0887 14.9647 20.6537C15.2469 19.2619 15.9326 17.9716 16.9519 16.9524C17.9711 15.9331 19.2614 15.2474 20.6532 14.9652C21.0882 14.877 21.3196 14.558 21.3196 14.3001V12.5117Z" fill="#09101C"/>
</svg>
