<svg width="26" height="26" viewBox="0 0 26 26" fill="none" xmlns="http://www.w3.org/2000/svg">
<path d="M22.75 13C22.75 18.3848 18.3848 22.75 13 22.75C7.61522 22.75 3.25 18.3848 3.25 13C3.25 7.61522 7.61522 3.25 13 3.25C18.3848 3.25 22.75 7.61522 22.75 13Z" fill="#2A4AF5"/>
<path fill-rule="evenodd" clip-rule="evenodd" d="M11.245 10.4001C11.245 9.43082 12.0308 8.64508 13 8.64508C13.9693 8.64508 14.755 9.43082 14.755 10.4001C14.755 11.3693 13.9693 12.1551 13 12.1551C12.0308 12.1551 11.245 11.3693 11.245 10.4001ZM13 6.95508C11.0974 6.95508 9.55504 8.49746 9.55504 10.4001C9.55504 12.3027 11.0974 13.8451 13 13.8451C14.9027 13.8451 16.445 12.3027 16.445 10.4001C16.445 8.49746 14.9027 6.95508 13 6.95508ZM13 17.745C11.2783 17.745 9.78985 18.7442 9.08302 20.1944C8.58124 19.9206 8.11127 19.5959 7.68005 19.2271C8.70232 17.3381 10.7013 16.055 13 16.055C15.2987 16.055 17.2978 17.3381 18.32 19.2271C17.8888 19.5959 17.4188 19.9206 16.9171 20.1944C16.2102 18.7442 14.7218 17.745 13 17.745Z" fill="white"/>
</svg>
