<svg width="26" height="26" viewBox="0 0 26 26" fill="none" xmlns="http://www.w3.org/2000/svg">
<path fill-rule="evenodd" clip-rule="evenodd" d="M12.9995 2.46997C12.1738 2.46997 11.4496 2.50986 10.8404 2.65321C10.2151 2.80034 9.66531 3.06705 9.24375 3.54884C8.83148 4.02 8.60989 4.61991 8.48464 5.30306C8.39421 5.79634 8.34814 6.36741 8.32961 7.01997H8.31494H8.27686H8.23877H8.20068H8.1626H8.12451H8.08643H8.04834H8.01025H7.97217H7.93408H7.896H7.85791H7.81982H7.78174H7.74365H7.70557H7.66748H7.62939H7.59131H7.55322H7.51514H7.47705H7.43896H7.40088H7.36279H7.32471H7.28662H7.24853H7.21045H7.17236H7.13428H7.09619H7.05811H7.02002H6.98193H6.94385H6.90576H6.86768H6.82959H6.7915H6.75342H6.71533H6.67725H6.63916H6.60107H6.56299H6.5249H6.48682H6.44873H6.41064H6.37256H6.33447H6.29639H6.2583H6.22021H6.18213H6.14404H6.10596H6.06787H6.02979H5.9917H5.95361H5.91553H5.87744H5.83936H5.80127H5.76318H5.7251H5.68701H5.64893H5.61084H5.57275H5.53467H5.49658H5.4585H5.42041H5.38232H5.34424H5.30615H5.26807H5.22998H5.19189H5.15381H5.11572H5.07764H5.03955H5.00146H4.96338H4.92529H4.88721H4.84912H4.81104H4.77295H4.73486H4.69678H4.65869H4.62061H4.58252H4.54443H4.50635H4.46826H4.43018H4.39209H4.354H4.31592H4.27783H4.23975H4.20166H4.16357H4.12549H4.0874H4.04932H4.01123H3.97314H3.93506H3.89697H3.85889H3.8208H3.78271H3.74463H3.70654H3.66846H3.63037H3.59229H3.5542H3.51611H3.47803H3.43994H3.40186H3.36377H3.32568H3.2876H3.24951V8.57997H3.2876H3.32568H3.36377H3.40186H3.43994H3.47803H3.51611H3.5542H3.59229H3.63037H3.66846H3.70654H3.74463H3.78271H3.8208H3.85889H3.89697H3.93506H3.97314H4.01123H4.04932H4.0874H4.12549H4.16357H4.20166H4.23975H4.27783H4.31592H4.354H4.39209H4.43018H4.46826H4.50635H4.54443H4.58252H4.62061H4.65869H4.69678H4.73486H4.77295H4.81104H4.84912H4.88721H4.92529H4.96338H5.00146H5.03955H5.07099C5.08288 11.6289 5.16746 14.0535 5.36827 15.9755C5.58475 18.0476 5.94238 19.6067 6.53873 20.7535C7.15692 21.9424 8.0209 22.6667 9.15352 23.0686C10.2351 23.4524 11.5317 23.5299 12.9995 23.5299C14.4674 23.5299 15.764 23.4524 16.8455 23.0686C17.9781 22.6667 18.8421 21.9424 19.4603 20.7535C20.0566 19.6067 20.4143 18.0476 20.6308 15.9755C20.8316 14.0535 20.9161 11.6289 20.928 8.57997H20.9595H20.9976H21.0356H21.0737H21.1118H21.1499H21.188H21.2261H21.2642H21.3022H21.3403H21.3784H21.4165H21.4546H21.4927H21.5308H21.5688H21.6069H21.645H21.6831H21.7212H21.7593H21.7974H21.8354H21.8735H21.9116H21.9497H21.9878H22.0259H22.064H22.1021H22.1401H22.1782H22.2163H22.2544H22.2925H22.3306H22.3687H22.4067H22.4448H22.4829H22.521H22.5591H22.5972H22.6353H22.6733H22.7114H22.7495V7.01997H22.7114H22.6733H22.6353H22.5972H22.5591H22.521H22.4829H22.4448H22.4067H22.3687H22.3306H22.2925H22.2544H22.2163H22.1782H22.1401H22.1021H22.064H22.0259H21.9878H21.9497H21.9116H21.8735H21.8354H21.7974H21.7593H21.7212H21.6831H21.645H21.6069H21.5688H21.5308H21.4927H21.4546H21.4165H21.3784H21.3403H21.3022H21.2642H21.2261H21.188H21.1499H21.1118H21.0737H21.0356H20.9976H20.9595H20.9214H20.8833H20.8452H20.8071H20.769H20.731H20.6929H20.6548H20.6167H20.5786H20.5405H20.5024H20.4644H20.4263H20.3882H20.3501H20.312H20.2739H20.2358H20.1978H20.1597H20.1216H20.0835H20.0454H20.0073H19.9692H19.9312H19.8931H19.855H19.8169H19.7788H19.7407H19.7026H19.6646H19.6265H19.5884H19.5503H19.5122H19.4741H19.436H19.3979H19.3599H19.3218H19.2837H19.2456H19.2075H19.1694H19.1313H19.0933H19.0552H19.0171H18.979H18.9409H18.9028H18.8647H18.8267H18.7886H18.7505H18.7124H18.6743H18.6362H18.5981H18.5601H18.522H18.4839H18.4458H18.4077H18.3696H18.3315H18.2935H18.2554H18.2173H18.1792H18.1411H18.103H18.0649H18.0269H17.9888H17.9507H17.9126H17.8745H17.8364H17.7983H17.7603H17.7222H17.6841H17.6694C17.6509 6.36741 17.6048 5.79634 17.5144 5.30306C17.3891 4.61991 17.1675 4.02 16.7553 3.54884C16.3337 3.06705 15.784 2.80034 15.1586 2.65321C14.5494 2.50986 13.8252 2.46997 12.9995 2.46997ZM9.91455 7.01997H9.89034C9.90825 6.43566 9.94917 5.96562 10.0191 5.58438C10.1173 5.04878 10.2613 4.75494 10.4178 4.5761C10.565 4.40789 10.7871 4.26835 11.1977 4.17174C11.6244 4.07133 12.2002 4.02997 12.9995 4.02997C13.7988 4.02997 14.3746 4.07133 14.8013 4.17174C15.2119 4.26835 15.4341 4.40789 15.5813 4.5761C15.7377 4.75494 15.8818 5.04878 15.98 5.58438C16.0498 5.96562 16.0908 6.43566 16.1087 7.01997H16.0845H16.0464H16.0083H15.9702H15.9321H15.894H15.856H15.8179H15.7798H15.7417H15.7036H15.6655H15.6274H15.5894H15.5513H15.5132H15.4751H15.437H15.3989H15.3608H15.3228H15.2847H15.2466H15.2085H15.1704H15.1323H15.0942H15.0562H15.0181H14.98H14.9419H14.9038H14.8657H14.8276H14.7896H14.7515H14.7134H14.6753H14.6372H14.5991H14.561H14.5229H14.4849H14.4468H14.4087H14.3706H14.3325H14.2944H14.2563H14.2183H14.1802H14.1421H14.104H14.0659H14.0278H13.9897H13.9517H13.9136H13.8755H13.8374H13.7993H13.7612H13.7231H13.6851H13.647H13.6089H13.5708H13.5327H13.4946H13.4565H13.4185H13.3804H13.3423H13.3042H13.2661H13.228H13.1899H13.1519H13.1138H13.0757H13.0376H12.9995H12.9614H12.9233H12.8853H12.8472H12.8091H12.771H12.7329H12.6948H12.6567H12.6187H12.5806H12.5425H12.5044H12.4663H12.4282H12.3901H12.3521H12.314H12.2759H12.2378H12.1997H12.1616H12.1235H12.0854H12.0474H12.0093H11.9712H11.9331H11.895H11.8569H11.8188H11.7808H11.7427H11.7046H11.6665H11.6284H11.5903H11.5522H11.5142H11.4761H11.438H11.3999H11.3618H11.3237H11.2856H11.2476H11.2095H11.1714H11.1333H11.0952H11.0571H11.019H10.981H10.9429H10.9048H10.8667H10.8286H10.7905H10.7524H10.7144H10.6763H10.6382H10.6001H10.562H10.5239H10.4858H10.4478H10.4097H10.3716H10.3335H10.2954H10.2573H10.2192H10.1812H10.1431H10.105H10.0669H10.0288H9.99072H9.95264H9.91455ZM6.91982 15.8134C6.72714 13.9692 6.64294 11.6078 6.63101 8.57997H6.63916H6.67725H6.71533H6.75342H6.7915H6.82959H6.86768H6.90576H6.94385H6.98193H7.02002H7.05811H7.09619H7.13428H7.17236H7.21045H7.24853H7.28662H7.32471H7.36279H7.40088H7.43896H7.47705H7.51514H7.55322H7.59131H7.62939H7.66748H7.70557H7.74365H7.78174H7.81982H7.85791H7.896H7.93408H7.97217H8.01025H8.04834H8.08643H8.12451H8.1626H8.20068H8.23877H8.27686H8.31494H8.35303H8.39111H8.4292H8.46729H8.50537H8.54346H8.58154H8.61963H8.65771H8.6958H8.73389H8.77197H8.81006H8.84814H8.88623H8.92432H8.9624H9.00049H9.03857H9.07666H9.11475H9.15283H9.19092H9.229H9.26709H9.30518H9.34326H9.38135H9.41943H9.45752H9.49561H9.53369H9.57178H9.60986H9.64795H9.68604H9.72412H9.76221H9.80029H9.83838H9.87646H9.91455H9.95264H9.99072H10.0288H10.0669H10.105H10.1431H10.1812H10.2192H10.2573H10.2954H10.3335H10.3716H10.4097H10.4478H10.4858H10.5239H10.562H10.6001H10.6382H10.6763H10.7144H10.7524H10.7905H10.8286H10.8667H10.9048H10.9429H10.981H11.019H11.0571H11.0952H11.1333H11.1714H11.2095H11.2476H11.2856H11.3237H11.3618H11.3999H11.438H11.4761H11.5142H11.5522H11.5903H11.6284H11.6665H11.7046H11.7427H11.7808H11.8188H11.8569H11.895H11.9331H11.9712H12.0093H12.0474H12.0854H12.1235H12.1616H12.1997H12.2378H12.2759H12.314H12.3521H12.3901H12.4282H12.4663H12.5044H12.5425H12.5806H12.6187H12.6567H12.6948H12.7329H12.771H12.8091H12.8472H12.8853H12.9233H12.9614H12.9995H13.0376H13.0757H13.1138H13.1519H13.1899H13.228H13.2661H13.3042H13.3423H13.3804H13.4185H13.4565H13.4946H13.5327H13.5708H13.6089H13.647H13.6851H13.7231H13.7612H13.7993H13.8374H13.8755H13.9136H13.9517H13.9897H14.0278H14.0659H14.104H14.1421H14.1802H14.2183H14.2563H14.2944H14.3325H14.3706H14.4087H14.4468H14.4849H14.5229H14.561H14.5991H14.6372H14.6753H14.7134H14.7515H14.7896H14.8276H14.8657H14.9038H14.9419H14.98H15.0181H15.0562H15.0942H15.1323H15.1704H15.2085H15.2466H15.2847H15.3228H15.3608H15.3989H15.437H15.4751H15.5132H15.5513H15.5894H15.6274H15.6655H15.7036H15.7417H15.7798H15.8179H15.856H15.894H15.9321H15.9702H16.0083H16.0464H16.0845H16.1226H16.1606H16.1987H16.2368H16.2749H16.313H16.3511H16.3892H16.4272H16.4653H16.5034H16.5415H16.5796H16.6177H16.6558H16.6938H16.7319H16.77H16.8081H16.8462H16.8843H16.9224H16.9604H16.9985H17.0366H17.0747H17.1128H17.1509H17.189H17.227H17.2651H17.3032H17.3413H17.3794H17.4175H17.4556H17.4937H17.5317H17.5698H17.6079H17.646H17.6841H17.7222H17.7603H17.7983H17.8364H17.8745H17.9126H17.9507H17.9888H18.0269H18.0649H18.103H18.1411H18.1792H18.2173H18.2554H18.2935H18.3315H18.3696H18.4077H18.4458H18.4839H18.522H18.5601H18.5981H18.6362H18.6743H18.7124H18.7505H18.7886H18.8267H18.8647H18.9028H18.9409H18.979H19.0171H19.0552H19.0933H19.1313H19.1694H19.2075H19.2456H19.2837H19.3218H19.3599H19.368C19.3561 11.6078 19.2719 13.9692 19.0792 15.8134C18.8691 17.8241 18.5361 19.1494 18.0762 20.0338C17.6382 20.8763 17.0803 21.33 16.3238 21.5984C15.5163 21.885 14.4567 21.9699 12.9995 21.9699C11.5424 21.9699 10.4827 21.885 9.67519 21.5984C8.91875 21.33 8.36086 20.8763 7.92279 20.0338C7.46289 19.1494 7.12989 17.8241 6.91982 15.8134ZM10.2695 17.55V11.7H11.8295V17.55H10.2695ZM14.1695 17.55V11.7H15.7295V17.55H14.1695Z" />
</svg>
