<svg width="26" height="26" viewBox="0 0 26 26" fill="none" xmlns="http://www.w3.org/2000/svg">
<path fill-rule="evenodd" clip-rule="evenodd" d="M17.1767 4.3572C17.5876 4.53682 18.06 4.78594 18.5491 5.12839C19.0382 5.47084 19.4338 5.82956 19.7432 6.1543C19.9807 6.4036 20.09 6.52232 20.1581 6.6254C20.2015 6.69111 20.2201 6.7375 20.2272 6.83299C20.2322 6.89927 20.2263 6.95606 20.1676 7.07471C20.0915 7.22838 19.9634 7.41488 19.7253 7.75491L18.8452 9.01191L14.7985 6.17844L15.6787 4.92144C15.9168 4.58141 16.0482 4.39723 16.1666 4.2732C16.258 4.17743 16.3094 4.15244 16.3734 4.13446C16.4655 4.10855 16.5155 4.11012 16.5921 4.12842C16.7122 4.15714 16.8612 4.21931 17.1767 4.3572ZM13.9038 7.45632L7.65257 16.3839C7.08909 17.1887 7.05976 18.3235 7.24875 19.3954C7.33986 19.9121 7.47438 20.3718 7.58677 20.703L7.60544 20.7574L7.66303 20.7564C8.01268 20.7487 8.49068 20.7179 9.00741 20.6268C10.0793 20.4378 11.1357 20.0221 11.6992 19.2174L17.9504 10.2898L13.9038 7.45632ZM6.35347 21.845C6.35358 21.8452 6.35367 21.8455 7.06604 21.5278L6.35367 21.8455L6.54429 22.2729L7.01113 22.3058L7.06604 21.5278C7.01113 22.3058 7.01137 22.3059 7.01162 22.3059L7.0122 22.3059L7.01362 22.306L7.0175 22.3063L7.02937 22.307L7.06904 22.3092C7.10239 22.3109 7.14935 22.313 7.20841 22.3147C7.32642 22.3182 7.49339 22.3205 7.69715 22.316C8.103 22.3071 8.66341 22.2715 9.27828 22.1631C10.4696 21.9531 12.0492 21.4373 12.9771 20.1122L21.0032 8.64969L21.0766 8.54525C21.4553 8.00797 21.8391 7.46337 21.7828 6.71589C21.7268 5.97123 21.3248 5.55102 20.9315 5.13988L20.8727 5.07831C20.5013 4.68845 20.0281 4.25959 19.4439 3.85051C18.8597 3.44143 18.2948 3.14342 17.8014 2.92778L17.7235 2.89357C17.2026 2.66461 16.6703 2.43061 15.9513 2.63263C15.2297 2.83541 14.8492 3.38234 14.4738 3.92193L14.4008 4.02666L6.3747 15.4892C5.44688 16.8142 5.50241 18.475 5.71245 19.6663C5.82086 20.2811 5.97906 20.8199 6.10951 21.2043C6.17501 21.3973 6.23421 21.5534 6.27784 21.6631C6.29968 21.718 6.31767 21.7615 6.33068 21.7922L6.34633 21.8287L6.35109 21.8396L6.35266 21.8432L6.35324 21.8445L6.35347 21.845Z" />
</svg>
