<svg width="26" height="26" viewBox="0 0 26 26" fill="none" xmlns="http://www.w3.org/2000/svg">
<path d="M1.30005 13C1.30005 9.3657 1.30005 7.54853 1.89379 6.11512C2.68544 4.2039 4.2039 2.68544 6.11512 1.89379C7.54853 1.30005 9.3657 1.30005 13 1.30005V1.30005C16.6344 1.30005 18.4516 1.30005 19.885 1.89379C21.7962 2.68544 23.3147 4.2039 24.1063 6.11512C24.7 7.54853 24.7 9.3657 24.7 13V13C24.7 16.6344 24.7 18.4516 24.1063 19.885C23.3147 21.7962 21.7962 23.3147 19.885 24.1063C18.4516 24.7 16.6344 24.7 13 24.7V24.7C9.3657 24.7 7.54853 24.7 6.11512 24.1063C4.2039 23.3147 2.68544 21.7962 1.89379 19.885C1.30005 18.4516 1.30005 16.6344 1.30005 13V13Z" fill="#2A4AF5"/>
<path d="M12.9999 18.3423C12.272 18.3423 11.6288 18.2171 11.0702 17.9666C10.515 17.716 10.08 17.3707 9.76513 16.9306C9.45029 16.4905 9.29456 15.9895 9.29794 15.4275C9.29456 14.9874 9.38427 14.5828 9.56708 14.2138C9.75328 13.8414 10.0055 13.5317 10.3237 13.2845C10.642 13.034 10.9974 12.8749 11.3901 12.8072V12.7462C10.8722 12.621 10.4574 12.3434 10.146 11.9134C9.83453 11.4835 9.6805 10.9892 9.68388 10.4306C9.6805 9.8991 9.82099 9.42515 10.1054 9.00874C10.3931 8.58895 10.7875 8.25887 11.2886 8.01851C11.7896 7.77814 12.3601 7.65796 12.9999 7.65796C13.633 7.65796 14.1983 7.77983 14.696 8.02358C15.197 8.26395 15.5914 8.59403 15.8792 9.01382C16.167 9.43022 16.3125 9.90249 16.3159 10.4306C16.3125 10.9892 16.1534 11.4835 15.8386 11.9134C15.5237 12.3434 15.1141 12.621 14.6097 12.7462V12.8072C14.999 12.8749 15.3494 13.034 15.6608 13.2845C15.9757 13.5317 16.2262 13.8414 16.4124 14.2138C16.602 14.5828 16.6985 14.9874 16.7019 15.4275C16.6985 15.9895 16.5394 16.4905 16.2245 16.9306C15.9097 17.3707 15.4729 17.716 14.9144 17.9666C14.3591 18.2171 13.721 18.3423 12.9999 18.3423ZM12.9999 17.0576C13.4298 17.0576 13.8022 16.9865 14.1171 16.8443C14.4319 16.6987 14.6757 16.4973 14.8483 16.24C15.021 15.9793 15.109 15.6746 15.1124 15.3259C15.109 14.9637 15.0142 14.6438 14.828 14.3662C14.6452 14.0886 14.3964 13.8702 14.0815 13.7111C13.7667 13.552 13.4061 13.4724 12.9999 13.4724C12.5903 13.4724 12.2263 13.552 11.9081 13.7111C11.5899 13.8702 11.3394 14.0886 11.1565 14.3662C10.9737 14.6438 10.884 14.9637 10.8874 15.3259C10.884 15.6746 10.967 15.9793 11.1362 16.24C11.3089 16.4973 11.5543 16.6987 11.8726 16.8443C12.1908 16.9865 12.5666 17.0576 12.9999 17.0576ZM12.9999 12.2181C13.3452 12.2181 13.6516 12.1487 13.919 12.0099C14.1865 11.8711 14.3964 11.6781 14.5487 11.431C14.7045 11.1839 14.784 10.8944 14.7874 10.5626C14.784 10.2376 14.7061 9.95327 14.5538 9.70952C14.4048 9.46577 14.1966 9.27788 13.9292 9.14585C13.6617 9.01043 13.352 8.94272 12.9999 8.94272C12.641 8.94272 12.3262 9.01043 12.0554 9.14585C11.7879 9.27788 11.5797 9.46577 11.4308 9.70952C11.2818 9.95327 11.209 10.2376 11.2124 10.5626C11.209 10.8944 11.2835 11.1839 11.4358 11.431C11.5882 11.6781 11.7981 11.8711 12.0655 12.0099C12.3364 12.1487 12.6478 12.2181 12.9999 12.2181Z" fill="white"/>
</svg>
