<svg width="26" height="26" viewBox="0 0 26 26" fill="none" xmlns="http://www.w3.org/2000/svg">
<path d="M1.30005 13C1.30005 9.3657 1.30005 7.54853 1.89379 6.11512C2.68544 4.2039 4.2039 2.68544 6.11512 1.89379C7.54853 1.30005 9.3657 1.30005 13 1.30005V1.30005C16.6344 1.30005 18.4516 1.30005 19.885 1.89379C21.7962 2.68544 23.3147 4.2039 24.1063 6.11512C24.7 7.54853 24.7 9.3657 24.7 13V13C24.7 16.6344 24.7 18.4516 24.1063 19.885C23.3147 21.7962 21.7962 23.3147 19.885 24.1063C18.4516 24.7 16.6344 24.7 13 24.7V24.7C9.3657 24.7 7.54853 24.7 6.11512 24.1063C4.2039 23.3147 2.68544 21.7962 1.89379 19.885C1.30005 18.4516 1.30005 16.6344 1.30005 13V13Z" fill="#2A4AF5"/>
<path d="M12.9135 18.2709C12.2771 18.2709 11.7049 18.1491 11.1971 17.9053C10.6927 17.6582 10.2898 17.3196 9.98853 16.8897C9.68722 16.4598 9.52642 15.9689 9.5061 15.417H11.0295C11.0668 15.8639 11.2648 16.2312 11.6237 16.519C11.9825 16.8068 12.4125 16.9506 12.9135 16.9506C13.313 16.9506 13.6668 16.8592 13.9749 16.6764C14.2863 16.4902 14.5301 16.2346 14.7061 15.9096C14.8855 15.5846 14.9752 15.2139 14.9752 14.7975C14.9752 14.3743 14.8838 13.9969 14.701 13.6651C14.5182 13.3333 14.266 13.0726 13.9444 12.8831C13.6262 12.6935 13.2605 12.597 12.8475 12.5936C12.5327 12.5936 12.2161 12.6478 11.8979 12.7561C11.5797 12.8644 11.3224 13.0066 11.126 13.1827L9.68892 12.9694L10.2729 7.72876H15.9909V9.07446H11.578L11.2479 11.9842H11.3088C11.512 11.7879 11.7811 11.6237 12.1163 11.4917C12.4548 11.3596 12.817 11.2936 13.203 11.2936C13.8361 11.2936 14.3997 11.4443 14.894 11.7456C15.3917 12.0469 15.7827 12.4582 16.067 12.9795C16.3548 13.4975 16.497 14.0933 16.4936 14.767C16.497 15.4407 16.3446 16.0417 16.0366 16.5698C15.7319 17.0979 15.3087 17.5143 14.767 17.819C14.2288 18.1203 13.6109 18.2709 12.9135 18.2709Z" fill="white"/>
</svg>
