<svg width="26" height="26" viewBox="0 0 26 26" fill="none" xmlns="http://www.w3.org/2000/svg">
<path fill-rule="evenodd" clip-rule="evenodd" d="M4.02973 12.9997C4.02973 10.895 4.11178 9.29232 4.35064 8.05985C4.58795 6.83532 4.96694 6.0481 5.50752 5.50752C6.0481 4.96694 6.83532 4.58795 8.05985 4.35064C9.29232 4.11178 10.895 4.02973 12.9997 4.02973C15.1044 4.02973 16.7071 4.11178 17.9396 4.35064C19.1641 4.58795 19.9514 4.96694 20.4919 5.50752C21.0325 6.0481 21.4115 6.83532 21.6488 8.05985C21.8877 9.29232 21.9697 10.895 21.9697 12.9997C21.9697 15.1044 21.8877 16.7071 21.6488 17.9396C21.4115 19.1641 21.0325 19.9514 20.4919 20.4919C19.9514 21.0325 19.1641 21.4115 17.9396 21.6488C16.7071 21.8877 15.1044 21.9697 12.9997 21.9697C10.895 21.9697 9.29232 21.8877 8.05985 21.6488C6.83532 21.4115 6.0481 21.0325 5.50752 20.4919C4.96694 19.9514 4.58795 19.1641 4.35064 17.9396C4.11178 16.7071 4.02973 15.1044 4.02973 12.9997ZM12.9997 2.46973C10.8794 2.46973 9.15088 2.55017 7.76304 2.81913C6.36726 3.08963 5.2451 3.56376 4.40443 4.40443C3.56376 5.2451 3.08963 6.36726 2.81913 7.76304C2.55017 9.15088 2.46973 10.8794 2.46973 12.9997C2.46973 15.12 2.55017 16.8486 2.81913 18.2364C3.08963 19.6322 3.56376 20.7544 4.40443 21.595C5.2451 22.4357 6.36726 22.9098 7.76304 23.1803C9.15088 23.4493 10.8794 23.5297 12.9997 23.5297C15.12 23.5297 16.8486 23.4493 18.2364 23.1803C19.6322 22.9098 20.7544 22.4357 21.595 21.595C22.4357 20.7544 22.9098 19.6322 23.1803 18.2364C23.4493 16.8486 23.5297 15.12 23.5297 12.9997C23.5297 10.8794 23.4493 9.15088 23.1803 7.76304C22.9098 6.36726 22.4357 5.2451 21.595 4.40443C20.7544 3.56376 19.6322 3.08963 18.2364 2.81913C16.8486 2.55017 15.12 2.46973 12.9997 2.46973ZM8.77186 16.1665C9.67601 16.1665 10.3436 15.7862 10.6478 15.144L10.7069 16.0228H11.7209V12.6851H8.94086V13.7075H10.4196V13.8343C10.4196 14.3582 10.0056 15.068 9.09296 15.068C8.08741 15.068 7.57196 14.2737 7.57196 13.0146C7.57196 11.7471 8.12121 10.9528 9.07606 10.9528C9.81121 10.9528 10.183 11.4176 10.2844 11.9837L11.6956 11.7218C11.5097 10.7247 10.6562 9.87966 9.08451 9.87966C7.24241 9.87966 6.11011 11.1472 6.11011 13.0315C6.11011 14.9328 7.11566 16.1665 8.77186 16.1665ZM14.3836 16.0228V10.0233H12.9556V16.0228H14.3836ZM17.2345 13.5554V16.0228H15.8065V10.0233H19.9132V11.1049H17.2345V12.4907H19.7611V13.5554H17.2345Z" fill="#09101C"/>
</svg>
