<svg width="26" height="26" viewBox="0 0 26 26" fill="none" xmlns="http://www.w3.org/2000/svg">
<path fill-rule="evenodd" clip-rule="evenodd" d="M16.9003 5.33002C15.8952 5.33002 15.0803 6.14486 15.0803 7.15002C15.0803 8.15518 15.8952 8.97002 16.9003 8.97002C17.9055 8.97002 18.7203 8.15518 18.7203 7.15002C18.7203 6.14486 17.9055 5.33002 16.9003 5.33002ZM13.5203 7.15002C13.5203 5.2833 15.0336 3.77002 16.9003 3.77002C18.7671 3.77002 20.2803 5.2833 20.2803 7.15002C20.2803 9.01674 18.7671 10.53 16.9003 10.53C15.0336 10.53 13.5203 9.01674 13.5203 7.15002ZM13.9521 15.1049C13.1285 16.2167 12.4803 18.3158 12.4803 22.2294L11.7001 22.2294V22.2299H15.0801V22.23H14.3001H3.90012H3.12012L3.12012 21.45C3.12011 17.81 3.77631 15.4811 4.91603 14.0565C6.09304 12.5852 7.6657 12.22 9.10012 12.22C9.94912 12.22 10.8466 12.3479 11.6817 12.7574C11.2888 13.1343 10.9366 13.5533 10.6323 14.0072C10.1597 13.8422 9.64503 13.78 9.10012 13.78C7.93452 13.78 6.90718 14.0647 6.13418 15.031C5.38609 15.9661 4.77991 17.6541 4.69128 20.67H10.9562C11.1068 17.5459 11.7256 15.4898 12.6986 14.1764C13.8736 12.5901 15.4581 12.2194 16.9004 12.2194C18.3348 12.2194 19.9074 12.5846 21.0845 14.0559C22.2242 15.4805 22.8804 17.8094 22.8804 21.4494L22.8804 22.2294H22.1004H15.6004V20.6694H21.3092C21.2206 17.6535 20.6144 15.9655 19.8663 15.0304C19.0933 14.0642 18.066 13.7794 16.9004 13.7794C15.7427 13.7794 14.7272 14.0586 13.9521 15.1049ZM7.28012 7.15028C7.28012 6.14513 8.09496 5.33028 9.10012 5.33028C10.1053 5.33028 10.9201 6.14513 10.9201 7.15028C10.9201 8.15544 10.1053 8.97028 9.10012 8.97028C8.09496 8.97028 7.28012 8.15544 7.28012 7.15028ZM9.10012 3.77028C7.2334 3.77028 5.72012 5.28356 5.72012 7.15028C5.72012 9.01701 7.2334 10.5303 9.10012 10.5303C10.9668 10.5303 12.4801 9.01701 12.4801 7.15028C12.4801 5.28356 10.9668 3.77028 9.10012 3.77028Z" fill="#09101C"/>
</svg>
