<svg width="26" height="26" viewBox="0 0 26 26" fill="none" xmlns="http://www.w3.org/2000/svg">
<path fill-rule="evenodd" clip-rule="evenodd" d="M4.35088 8.05985C4.11203 9.29232 4.02997 10.895 4.02997 12.9997C4.02997 13.1474 4.03038 13.2926 4.03121 13.4353C4.18715 13.3569 4.35728 13.2773 4.54212 13.198C5.79008 12.6632 7.69144 12.1547 10.4001 12.1548C14.0892 12.1549 16.5856 14.7398 18.0984 17.093C18.8662 18.2873 19.417 19.4753 19.7756 20.361C19.8547 20.5564 19.9247 20.7378 19.9858 20.902C20.1759 20.7773 20.3434 20.6407 20.4922 20.4919C21.0328 19.9514 21.4118 19.1641 21.6491 17.9396C21.8879 16.7071 21.97 15.1044 21.97 12.9997C21.97 10.895 21.8879 9.29232 21.6491 8.05985C21.4118 6.83532 21.0328 6.0481 20.4922 5.50752C19.9516 4.96694 19.1644 4.58795 17.9399 4.35064C16.7074 4.11178 15.1047 4.02973 13 4.02973C10.8953 4.02973 9.29257 4.11178 8.06009 4.35064C6.83556 4.58795 6.04834 4.96694 5.50776 5.50752C4.96719 6.0481 4.58819 6.83532 4.35088 8.05985ZM4.35088 17.9396C4.21103 17.218 4.12493 16.3694 4.07758 15.3674L4.11698 15.3398C4.33629 15.1879 4.69307 14.972 5.20788 14.7514C6.23489 14.3112 7.90852 13.8447 10.4 13.8448C13.2108 13.8448 15.2644 15.81 16.6768 18.0069C17.3715 19.0875 17.8769 20.1746 18.2091 20.9951C18.2903 21.1958 18.3608 21.3797 18.421 21.5428C18.2685 21.5808 18.1083 21.6162 17.9399 21.6488C16.7074 21.8877 15.1047 21.9697 13 21.9697C10.8953 21.9697 9.29257 21.8877 8.06009 21.6488C6.83556 21.4115 6.04834 21.0325 5.50776 20.4919C4.96719 19.9514 4.58819 19.1641 4.35088 17.9396ZM7.76329 2.81913C9.15113 2.55017 10.8797 2.46973 13 2.46973C15.1203 2.46973 16.8488 2.55017 18.2367 2.81913C19.6324 3.08963 20.7546 3.56376 21.5953 4.40443C22.4359 5.2451 22.9101 6.36726 23.1806 7.76304C23.4495 9.15088 23.53 10.8794 23.53 12.9997C23.53 15.12 23.4495 16.8486 23.1806 18.2364C22.9101 19.6322 22.4359 20.7544 21.5953 21.595C20.7546 22.4357 19.6324 22.9098 18.2367 23.1803C16.8488 23.4493 15.1203 23.5297 13 23.5297C10.8797 23.5297 9.15113 23.4493 7.76329 23.1803C6.36751 22.9098 5.24535 22.4357 4.40468 21.595C3.56401 20.7544 3.08988 19.6322 2.81937 18.2364C2.55041 16.8486 2.46997 15.12 2.46997 12.9997C2.46997 10.8794 2.55041 9.15088 2.81937 7.76304C3.08988 6.36726 3.56401 5.2451 4.40468 4.40443C5.24535 3.56376 6.36751 3.08963 7.76329 2.81913ZM16.9 11.0498C17.977 11.0498 18.85 10.1767 18.85 9.09976C18.85 8.0228 17.977 7.14976 16.9 7.14976C15.8231 7.14976 14.95 8.0228 14.95 9.09976C14.95 10.1767 15.8231 11.0498 16.9 11.0498Z" />
</svg>
