<svg width="26" height="26" viewBox="0 0 26 26" fill="none" xmlns="http://www.w3.org/2000/svg">
<path fill-rule="evenodd" clip-rule="evenodd" d="M12.9994 3.12012C11.9628 3.12012 10.7476 3.28717 9.79985 4.12965C8.90351 4.92645 8.39367 6.19164 8.32695 8.02776C7.577 8.22307 6.93935 8.53233 6.43565 9.03605C5.78487 9.68686 5.4587 10.5612 5.28351 11.6125C5.10925 12.6583 5.06982 13.9764 5.06982 15.6001C5.06982 17.2238 5.10929 18.5419 5.28361 19.5877C5.45885 20.639 5.7851 21.5134 6.43591 22.1641C7.08672 22.8149 7.96108 23.1411 9.01235 23.3163C10.0581 23.4906 11.3762 23.5301 12.9998 23.5301C14.6235 23.5301 15.9415 23.4906 16.9873 23.3163C18.0386 23.1411 18.9129 22.8149 19.5637 22.1641C20.2145 21.5134 20.5408 20.639 20.716 19.5877C20.8904 18.5419 20.9298 17.2238 20.9298 15.6001C20.9298 13.9764 20.8904 12.6583 20.7161 11.6125C20.5409 10.5612 20.2148 9.68686 19.564 9.03605C19.0601 8.53216 18.4222 8.22285 17.6719 8.02756C17.6052 6.19155 17.0953 4.92642 16.199 4.12965C15.2513 3.28717 14.0361 3.12012 12.9994 3.12012ZM16.0964 7.77173C15.9976 6.39198 15.5955 5.68045 15.1626 5.29558C14.6479 4.83807 13.9131 4.68012 12.9994 4.68012C12.0858 4.68012 11.351 4.83807 10.8363 5.29558C10.4033 5.68046 10.0012 6.39201 9.90249 7.7718C10.7787 7.69138 11.8068 7.67009 12.9998 7.67009C14.1925 7.67009 15.2203 7.69137 16.0964 7.77173ZM6.8223 11.8689C6.67161 12.7732 6.62982 13.9738 6.62982 15.6001C6.62982 17.2263 6.67165 18.427 6.82238 19.3312C6.97219 20.2299 7.21475 20.7368 7.53898 21.061C7.86321 21.3852 8.37011 21.6278 9.26882 21.7776C10.173 21.9283 11.3736 21.9701 12.9998 21.9701C14.626 21.9701 15.8266 21.9283 16.7308 21.7776C17.6295 21.6278 18.1364 21.3852 18.4607 21.061C18.7849 20.7368 19.0275 20.2299 19.1773 19.3312C19.328 18.427 19.3698 17.2263 19.3698 15.6001C19.3698 13.9738 19.328 12.7732 19.1774 11.8689C19.0276 10.9702 18.7851 10.4633 18.4609 10.1391C18.1367 9.81492 17.6298 9.57239 16.7311 9.4226C15.8269 9.27189 14.6262 9.23009 12.9998 9.23009C11.3735 9.23009 10.1728 9.27189 9.26854 9.4226C8.36981 9.57239 7.86294 9.81492 7.53876 10.1391C7.21458 10.4633 6.97206 10.9702 6.8223 11.8689ZM11.0494 14.8201H14.9494V16.3801L11.0494 16.3801V14.8201Z" fill="#09101C"/>
</svg>
