<svg width="26" height="26" viewBox="0 0 26 26" fill="none" xmlns="http://www.w3.org/2000/svg">
<path fill-rule="evenodd" clip-rule="evenodd" d="M11.6998 3.76978C9.8998 3.76978 8.41285 3.85052 7.20477 4.10084C5.98812 4.35294 4.99515 4.78877 4.24194 5.54198C3.48873 6.29519 3.05289 7.28816 2.8008 8.5048C2.55047 9.71288 2.46973 11.1998 2.46973 12.9998C2.46973 14.7997 2.55047 16.2867 2.8008 17.4948C3.05289 18.7114 3.48873 19.7044 4.24194 20.4576C4.99515 21.2108 5.98812 21.6466 7.20477 21.8987C8.41285 22.149 9.8998 22.2298 11.6998 22.2298V20.6698C9.92471 20.6698 8.5679 20.588 7.52128 20.3712C6.48323 20.1561 5.81057 19.82 5.34502 19.3545C4.87948 18.8889 4.54344 18.2163 4.32835 17.1782C4.11148 16.1316 4.02973 14.7748 4.02973 12.9998C4.02973 11.2247 4.11148 9.86792 4.32835 8.82132C4.54344 7.78327 4.87948 7.11061 5.34502 6.64507C5.81057 6.17953 6.48323 5.84349 7.52128 5.6284C8.5679 5.41153 9.92471 5.32978 11.6998 5.32978V3.76978ZM22.6871 13.5134L18.1367 18.7135L16.9628 17.6862L20.3811 13.7798H9.09975V12.2198H20.3812L16.9628 8.31347L18.1367 7.28615L22.6871 12.4861L23.1366 12.9997L22.6871 13.5134Z" />
</svg>
