<svg width="26" height="26" viewBox="0 0 26 26" fill="none" xmlns="http://www.w3.org/2000/svg">
<path fill-rule="evenodd" clip-rule="evenodd" d="M2.46997 11.0497C2.46997 6.31112 6.31137 2.46973 11.05 2.46973H14.48C19.4781 2.46973 23.53 6.52155 23.53 11.5197C23.53 14.7267 21.8327 17.6942 19.0685 19.3202L12.0954 23.422L10.92 24.1135V22.7497V19.6288C6.24131 19.5593 2.46997 15.7449 2.46997 11.0497ZM11.05 4.02973C7.17293 4.02973 4.02997 7.17269 4.02997 11.0497C4.02997 14.9268 7.17293 18.0697 11.05 18.0697H11.7H12.48V18.8497V21.386L18.2776 17.9756C20.5653 16.6299 21.97 14.1739 21.97 11.5197C21.97 7.38312 18.6166 4.02973 14.48 4.02973H11.05ZM9.09997 8.31973H16.9V9.87973H9.09997V8.31973ZM14.95 12.2197H9.09997V13.7797H14.95V12.2197Z" fill="#09101C"/>
</svg>
