<svg width="26" height="26" viewBox="0 0 26 26" fill="none" xmlns="http://www.w3.org/2000/svg">
<path fill-rule="evenodd" clip-rule="evenodd" d="M13.6819 4.15428C13.2303 4.07903 12.7694 4.07903 12.3178 4.15428C10.911 4.38869 9.87986 5.60584 9.87986 7.03203V13.1177C9.87986 14.5438 10.9108 15.7609 12.3175 15.9954C12.7693 16.0707 13.2304 16.0707 13.6822 15.9954C15.0889 15.7609 16.1199 14.5438 16.1199 13.1177V7.03203C16.1199 5.60584 15.0887 4.38869 13.6819 4.15428ZM12.0614 2.61549C12.6828 2.51196 13.317 2.51196 13.9383 2.61549C16.0974 2.97525 17.6799 4.84322 17.6799 7.03203V13.1177C17.6799 15.3064 16.0976 17.1742 13.9388 17.5341C13.3171 17.6377 12.6826 17.6377 12.061 17.5341C9.90212 17.1742 8.31986 15.3064 8.31986 13.1177V7.03203C8.31986 4.84322 9.90234 2.97525 12.0614 2.61549ZM4.42383 14.3784C4.42378 14.3779 4.42374 14.3775 5.19987 14.2998C5.976 14.2222 5.97596 14.2218 5.97592 14.2215L5.9766 14.2273C5.9775 14.2349 5.97915 14.2484 5.98173 14.2672C5.98689 14.305 5.99573 14.3643 6.00962 14.442C6.03743 14.5978 6.08522 14.8262 6.16361 15.1028C6.3211 15.6587 6.59788 16.3944 7.0726 17.1248C7.9994 18.5506 9.71431 20.0198 12.9999 20.0198C16.2854 20.0198 18.0003 18.5506 18.9271 17.1248C19.4019 16.3944 19.6786 15.6587 19.8361 15.1028C19.9145 14.8262 19.9623 14.5978 19.9901 14.442C20.004 14.3643 20.0128 14.305 20.018 14.2672C20.0206 14.2484 20.0222 14.2349 20.0231 14.2273L20.0238 14.2215C20.0238 14.2218 20.0237 14.2222 20.7999 14.2998C21.576 14.3775 21.576 14.3779 21.5759 14.3784L21.5758 14.3794L21.5755 14.382L21.5748 14.3889L21.5724 14.4097C21.5704 14.4267 21.5676 14.4497 21.5636 14.4785C21.5558 14.5359 21.5437 14.6163 21.5258 14.7163C21.4902 14.916 21.4313 15.1954 21.337 15.5281C21.1492 16.191 20.8166 17.0803 20.2351 17.9749C19.1316 19.6726 17.1626 21.3326 13.7799 21.5547V24.0498H12.2199V21.5547C8.83716 21.3326 6.86811 19.6726 5.76463 17.9749C5.1831 17.0803 4.85051 16.191 4.66269 15.5281C4.56842 15.1954 4.50957 14.916 4.47391 14.7163C4.45606 14.6163 4.44395 14.5359 4.4361 14.4785C4.43217 14.4497 4.4293 14.4267 4.4273 14.4097L4.42494 14.3889L4.4242 14.382L4.42394 14.3794L4.42383 14.3784ZM5.97578 14.2201C5.97574 14.2198 5.97575 14.2198 5.9758 14.2202L5.97578 14.2201ZM20.024 14.2201C20.024 14.2198 20.024 14.2198 20.0239 14.2202L20.024 14.2201Z" fill="#09101C"/>
</svg>
