<svg width="26" height="26" viewBox="0 0 26 26" fill="none" xmlns="http://www.w3.org/2000/svg">
<path fill-rule="evenodd" clip-rule="evenodd" d="M7.7999 12.9998C7.7999 14.0768 6.92686 14.9498 5.8499 14.9498C4.77295 14.9498 3.8999 14.0768 3.8999 12.9998C3.8999 11.9228 4.77295 11.0498 5.8499 11.0498C6.92686 11.0498 7.7999 11.9228 7.7999 12.9998ZM14.9499 12.9998C14.9499 14.0768 14.0769 14.9498 12.9999 14.9498C11.9229 14.9498 11.0499 14.0768 11.0499 12.9998C11.0499 11.9228 11.9229 11.0498 12.9999 11.0498C14.0769 11.0498 14.9499 11.9228 14.9499 12.9998ZM20.1499 14.9498C21.2269 14.9498 22.0999 14.0768 22.0999 12.9998C22.0999 11.9228 21.2269 11.0498 20.1499 11.0498C19.0729 11.0498 18.1999 11.9228 18.1999 12.9998C18.1999 14.0768 19.0729 14.9498 20.1499 14.9498Z" />
</svg>
