<svg width="26" height="26" viewBox="0 0 26 26" fill="none" xmlns="http://www.w3.org/2000/svg">
<path fill-rule="evenodd" clip-rule="evenodd" d="M18.4347 19.6299L22.1523 23.3476L23.3474 22.1526L3.84735 2.65259L2.65234 3.8476L6.93298 8.12823C6.6844 9.02215 6.5117 10.0582 6.42794 11.2547C6.35109 12.3525 6.31682 12.8167 6.26534 13.0762C6.21346 13.3377 6.11691 13.6322 5.87618 14.3544L4.45988 18.6033L4.11766 19.6299H5.19985H8.38527C8.54614 20.5818 8.99894 21.4677 9.69059 22.1593C10.5683 23.037 11.7586 23.53 12.9998 23.53C14.2411 23.53 15.4314 23.037 16.3091 22.1593C17.0008 21.4677 17.4536 20.5818 17.6144 19.6299H18.4347ZM16.8747 18.0699L8.22999 9.42525C8.1189 9.9979 8.03471 10.6411 7.98413 11.3637L7.97686 11.4675L7.97686 11.4676C7.90911 12.4361 7.86903 13.0092 7.79552 13.3797C7.72205 13.7501 7.59077 14.1439 7.37599 14.7881L7.35613 14.8477L6.28204 18.0699H12.9998H16.8747ZM18.2042 13.3797C18.2523 13.6225 18.3253 13.8752 18.4303 14.2019L20.8939 16.6655L20.1235 14.3544C19.8828 13.6322 19.7862 13.3377 19.7344 13.0762C19.6829 12.8167 19.6486 12.3525 19.5718 11.2547C19.3438 7.99874 18.4573 5.93073 17.1753 4.68251C15.8841 3.42529 14.316 3.11993 12.9998 3.11993C11.6986 3.11993 10.1512 3.4184 8.86848 4.64007L9.97204 5.74363C10.8569 4.91748 11.9403 4.67993 12.9998 4.67993C14.0832 4.67993 15.1915 4.92827 16.087 5.80021C16.9918 6.68115 17.8023 8.31776 18.0156 11.3637L18.0228 11.4676L18.0228 11.4676C18.0906 12.4361 18.1307 13.0092 18.2042 13.3797ZM10.7937 21.0562C10.3962 20.6588 10.1171 20.1651 9.97891 19.63L12.9998 19.63H16.0208C15.8826 20.1651 15.6035 20.6588 15.206 21.0562C14.6209 21.6413 13.8273 21.97 12.9998 21.97C12.1724 21.97 11.3788 21.6413 10.7937 21.0562Z" fill="#09101C"/>
</svg>
