<svg width="26" height="26" viewBox="0 0 26 26" fill="none" xmlns="http://www.w3.org/2000/svg">
<path d="M1.30005 13C1.30005 9.3657 1.30005 7.54853 1.89379 6.11512C2.68544 4.2039 4.2039 2.68544 6.11512 1.89379C7.54853 1.30005 9.3657 1.30005 13 1.30005V1.30005C16.6344 1.30005 18.4516 1.30005 19.885 1.89379C21.7962 2.68544 23.3147 4.2039 24.1063 6.11512C24.7 7.54853 24.7 9.3657 24.7 13V13C24.7 16.6344 24.7 18.4516 24.1063 19.885C23.3147 21.7962 21.7962 23.3147 19.885 24.1063C18.4516 24.7 16.6344 24.7 13 24.7V24.7C9.3657 24.7 7.54853 24.7 6.11512 24.1063C4.2039 23.3147 2.68544 21.7962 1.89379 19.885C1.30005 18.4516 1.30005 16.6344 1.30005 13V13Z" fill="#2A4AF5"/>
<path d="M12.9062 7.65793C13.37 7.66131 13.827 7.74595 14.2773 7.91183C14.7276 8.07772 15.1338 8.34855 15.496 8.72433C15.8617 9.10012 16.1528 9.60793 16.3695 10.2478C16.5895 10.8842 16.7013 11.6764 16.7046 12.6243C16.7046 13.535 16.6132 14.3458 16.4304 15.0568C16.2476 15.7643 15.9852 16.3618 15.6433 16.8493C15.3048 17.3368 14.8934 17.7075 14.4093 17.9614C13.9252 18.2154 13.3802 18.3423 12.7742 18.3423C12.1546 18.3423 11.6045 18.2204 11.1238 17.9767C10.6431 17.7329 10.252 17.3961 9.95073 16.9661C9.64943 16.5328 9.46154 16.0351 9.38706 15.4732H10.9359C11.0375 15.92 11.244 16.2823 11.5554 16.5599C11.8703 16.8341 12.2765 16.9712 12.7742 16.9712C13.5359 16.9712 14.13 16.6394 14.5566 15.9759C14.9832 15.309 15.1981 14.378 15.2015 13.1829H15.1203C14.9442 13.4741 14.7242 13.7246 14.4601 13.9345C14.1994 14.1444 13.9066 14.3069 13.5816 14.422C13.2566 14.5371 12.9096 14.5946 12.5406 14.5946C11.9414 14.5946 11.3963 14.4474 10.9054 14.1529C10.4145 13.8583 10.0235 13.4538 9.73237 12.9392C9.44123 12.4246 9.29565 11.8372 9.29565 11.1771C9.29565 10.5203 9.44461 9.92447 9.74253 9.38957C10.0438 8.85467 10.4636 8.4315 11.0019 8.12004C11.5436 7.80519 12.1783 7.65116 12.9062 7.65793ZM12.9113 8.97824C12.5152 8.97824 12.158 9.07642 11.8398 9.27277C11.525 9.46574 11.2761 9.72811 11.0933 10.0599C10.9105 10.3883 10.8191 10.7539 10.8191 11.1568C10.8191 11.5596 10.9071 11.9252 11.0832 12.2536C11.2626 12.5786 11.5063 12.8376 11.8144 13.0306C12.1259 13.2202 12.4813 13.315 12.8808 13.315C13.1787 13.315 13.4563 13.2574 13.7136 13.1423C13.9709 13.0272 14.196 12.8681 14.389 12.665C14.582 12.4584 14.7326 12.2249 14.841 11.9642C14.9493 11.7035 15.0035 11.4293 15.0035 11.1415C15.0035 10.759 14.9121 10.4035 14.7292 10.0751C14.5498 9.74673 14.3027 9.48267 13.9878 9.28293C13.673 9.0798 13.3141 8.97824 12.9113 8.97824Z" fill="white"/>
</svg>
