<svg width="26" height="26" viewBox="0 0 26 26" fill="none" xmlns="http://www.w3.org/2000/svg">
<path fill-rule="evenodd" clip-rule="evenodd" d="M12.9426 3.12012C11.6383 3.12889 10.0966 3.44332 8.82395 4.6825C7.54197 5.93072 6.6554 7.99873 6.42747 11.2547C6.35062 12.3525 6.31635 12.8167 6.26487 13.0762C6.213 13.3377 6.11644 13.6322 5.87571 14.3543L4.45941 18.6033L4.11719 19.6299H5.19938H8.38481C8.5457 20.5818 8.99849 21.4676 9.69012 22.1592C10.5678 23.0369 11.7582 23.53 12.9994 23.53C14.2406 23.53 15.431 23.0369 16.3086 22.1592C17.0003 21.4676 17.4531 20.5818 17.6139 19.6299H20.7994H21.8816L21.5394 18.6033L20.123 14.3544C20.1047 14.2993 20.0872 14.2467 20.0704 14.1964C19.6736 14.2646 19.2657 14.3002 18.8494 14.3002C18.7182 14.3002 18.5877 14.2967 18.4583 14.2897C18.5068 14.4388 18.5616 14.6031 18.6232 14.7881L18.6431 14.8477L19.7172 18.0699H12.9994H6.28157L7.35566 14.8477L7.37552 14.7881C7.5903 14.1439 7.72158 13.7501 7.79505 13.3797C7.86856 13.0092 7.90864 12.4361 7.97639 11.4675L7.98366 11.3636C8.19688 8.31776 9.00746 6.68114 9.91222 5.8002C10.5642 5.16536 11.329 4.86109 12.1149 4.74256C12.3219 4.16361 12.6014 3.61914 12.9426 3.12012ZM9.97844 19.63C10.1166 20.1651 10.3958 20.6587 10.7932 21.0561C11.3783 21.6412 12.1719 21.97 12.9994 21.97C13.8269 21.97 14.6204 21.6412 15.2056 21.0561C15.603 20.6587 15.8821 20.1651 16.0203 19.63H12.9994L9.97844 19.63Z" fill="#09101C"/>
<path d="M24.0498 7.14971C24.0498 10.0216 21.7217 12.3497 18.8498 12.3497C15.9779 12.3497 13.6498 10.0216 13.6498 7.14971C13.6498 4.27783 15.9779 1.94971 18.8498 1.94971C21.7217 1.94971 24.0498 4.27783 24.0498 7.14971Z" fill="#2A4AF5"/>
</svg>
