<svg width="26" height="26" viewBox="0 0 26 26" fill="none" xmlns="http://www.w3.org/2000/svg">
<path d="M1.2998 13C1.2998 9.3657 1.2998 7.54853 1.89355 6.11512C2.6852 4.2039 4.20365 2.68544 6.11487 1.89379C7.54829 1.30005 9.36546 1.30005 12.9998 1.30005V1.30005C16.6341 1.30005 18.4513 1.30005 19.8847 1.89379C21.796 2.68544 23.3144 4.2039 24.1061 6.11512C24.6998 7.54853 24.6998 9.3657 24.6998 13V13C24.6998 16.6344 24.6998 18.4516 24.1061 19.885C23.3144 21.7962 21.796 23.3147 19.8847 24.1063C18.4513 24.7 16.6341 24.7 12.9998 24.7V24.7C9.36546 24.7 7.54829 24.7 6.11487 24.1063C4.20365 23.3147 2.6852 21.7962 1.89355 19.885C1.2998 18.4516 1.2998 16.6344 1.2998 13V13Z" fill="#2A4AF5"/>
<path d="M15.0617 7.80005V18.2001H13.4875V9.37427H13.4265L10.9382 10.9993V9.49614L13.5332 7.80005H15.0617Z" fill="white"/>
</svg>
