<svg width="26" height="26" viewBox="0 0 26 26" fill="none" xmlns="http://www.w3.org/2000/svg">
<path fill-rule="evenodd" clip-rule="evenodd" d="M11.4213 10.4608C12.2341 9.05307 12.8796 8.00742 13.4332 7.24849C13.9935 6.48053 14.4145 6.07077 14.7591 5.86672C15.0601 5.68847 15.3252 5.65238 15.6702 5.72778C16.0652 5.81407 16.5528 6.04491 17.2535 6.44946C17.9527 6.85317 18.408 7.16629 18.6944 7.47589C18.9498 7.75197 19.0639 8.01683 19.0702 8.37801C19.0774 8.78483 18.9474 9.36038 18.5766 10.2307C18.2096 11.0922 17.6365 12.1758 16.8253 13.5808L16.7142 13.7732L16.7212 13.9953L16.8693 18.7006L6.92471 12.9591L11.1085 10.7613L11.3084 10.6563L11.4213 10.4608ZM18.0335 5.09846C17.3269 4.69051 16.6561 4.3464 16.0033 4.20374C15.3005 4.05018 14.6283 4.13115 13.9642 4.52443C13.3437 4.89189 12.7719 5.50812 12.1729 6.32908C11.5956 7.12042 10.9507 8.16285 10.1836 9.48506L4.94612 12.2363L3.69299 12.8946L4.91885 13.6024L10.4255 16.7816L7.25046 22.0989L9.12146 22.099L11.7817 17.5646L17.303 20.7524L18.5168 21.4531L18.4727 20.0523L18.2874 14.1678C19.0506 12.8378 19.6252 11.7495 20.0118 10.8422C20.4131 9.90014 20.6429 9.08408 20.63 8.35063C20.6163 7.57154 20.3307 6.94747 19.8396 6.41656C19.3795 5.91918 18.7415 5.50726 18.0335 5.09846Z" />
</svg>
