<svg width="26" height="26" viewBox="0 0 26 26" fill="none" xmlns="http://www.w3.org/2000/svg">
<path fill-rule="evenodd" clip-rule="evenodd" d="M11.4212 10.4608C12.2339 9.05307 12.8794 8.00742 13.4331 7.24849C13.9933 6.48053 14.4144 6.07077 14.759 5.86672C15.06 5.68847 15.3251 5.65238 15.6701 5.72778C16.065 5.81407 16.5526 6.04491 17.2534 6.44946C17.9526 6.85317 18.4079 7.16629 18.6943 7.47589C18.9497 7.75197 19.0638 8.01683 19.0701 8.37801C19.0772 8.78483 18.9473 9.36038 18.5765 10.2307C18.2095 11.0922 17.6364 12.1758 16.8252 13.5808L16.7141 13.7732L16.7211 13.9953L16.8692 18.7006L6.92459 12.9591L11.1084 10.7613L11.3083 10.6563L11.4212 10.4608ZM18.0334 5.09846C17.3268 4.69051 16.656 4.3464 16.0031 4.20374C15.3004 4.05018 14.6282 4.13115 13.9641 4.52443C13.3436 4.89189 12.7717 5.50812 12.1728 6.32908C11.5955 7.12042 10.9506 8.16285 10.1835 9.48506L4.94599 12.2363L3.69287 12.8946L4.91873 13.6024L10.4254 16.7816L7.25033 22.0989L9.12133 22.099L11.7816 17.5646L17.3029 20.7524L18.5166 21.4531L18.4725 20.0523L18.2873 14.1678C19.0505 12.8378 19.6251 11.7495 20.0117 10.8422C20.413 9.90014 20.6427 9.08408 20.6299 8.35063C20.6162 7.57154 20.3306 6.94747 19.8395 6.41656C19.3794 5.91918 18.7414 5.50726 18.0334 5.09846Z" fill="#09101C"/>
</svg>
