<svg width="26" height="26" viewBox="0 0 26 26" fill="none" xmlns="http://www.w3.org/2000/svg">
<path fill-rule="evenodd" clip-rule="evenodd" d="M8.44965 1.16992C8.03172 1.16992 7.65922 1.38601 7.39725 1.57456C7.10693 1.78352 6.80755 2.06658 6.51324 2.38815C5.92191 3.03425 5.28317 3.91074 4.6959 4.87564C4.10736 5.84262 3.55691 6.92075 3.15135 7.97748C2.75013 9.02291 2.46997 10.1005 2.46997 11.0499V11.8299H3.24997H22.75H23.53V11.0499C23.53 9.13537 22.4003 7.32678 21.2076 6.04895C20.5996 5.39751 19.9419 4.8473 19.335 4.45396C19.0317 4.25737 18.7298 4.09265 18.4436 3.97474C18.1683 3.86131 17.857 3.76992 17.5497 3.76992C16.9162 3.76992 16.4763 4.10449 16.1805 4.44256C15.9616 4.69281 15.7648 5.01518 15.6066 5.27443L15.6066 5.27444L15.6066 5.27446C15.5714 5.33213 15.5382 5.38668 15.507 5.43661C15.1078 6.07539 14.8237 6.36992 14.3 6.36992C14.1276 6.36992 13.7919 6.23229 13.2697 5.75928C12.7807 5.31642 12.2658 4.70941 11.7365 4.05805C11.6356 3.93384 11.5337 3.80742 11.4315 3.68055L11.4314 3.68042C11.0157 3.16468 10.594 2.64151 10.2071 2.22892C9.9644 1.97003 9.70787 1.72418 9.44732 1.53834C9.20329 1.36428 8.8564 1.16992 8.44965 1.16992ZM21.8828 10.2699H4.10474C4.19567 9.75018 4.36735 9.16289 4.60778 8.53643C4.97399 7.58222 5.47964 6.58847 6.02849 5.6867C6.5786 4.78285 7.1585 3.99372 7.66402 3.44138C7.91814 3.16373 8.13673 2.96437 8.30855 2.84071C8.37267 2.79456 8.41972 2.76661 8.451 2.74993C8.47317 2.76246 8.50314 2.78106 8.54145 2.80838C8.6796 2.90691 8.85476 3.06731 9.06911 3.29592C9.41194 3.66158 9.78465 4.12375 10.1962 4.63414C10.3034 4.76704 10.4132 4.90321 10.5258 5.0418C11.0529 5.69043 11.6349 6.38343 12.2225 6.91556C12.7767 7.41755 13.4973 7.92992 14.3 7.92992C15.7263 7.92992 16.4168 6.92445 16.8299 6.26323C16.8833 6.17779 16.9314 6.09955 16.9756 6.02753C17.1257 5.78296 17.2318 5.61005 17.3546 5.46979C17.4786 5.32804 17.5278 5.32936 17.5468 5.32987L17.5497 5.32992C17.5673 5.32992 17.6624 5.3401 17.8493 5.4171C18.0253 5.48962 18.2414 5.60419 18.4866 5.76307C18.9766 6.08067 19.5377 6.54609 20.0672 7.11339C20.9413 8.04989 21.6445 9.17013 21.8828 10.2699ZM4.67997 17.5499C4.67997 16.1858 5.78583 15.0799 7.14997 15.0799C8.51411 15.0799 9.61997 16.1858 9.61997 17.5499C9.61997 18.9141 8.51411 20.0199 7.14997 20.0199C5.78583 20.0199 4.67997 18.9141 4.67997 17.5499ZM7.14997 13.5199C4.92426 13.5199 3.11997 15.3242 3.11997 17.5499C3.11997 19.7756 4.92426 21.5799 7.14997 21.5799C9.22591 21.5799 10.9352 20.0103 11.1559 17.9931C11.1866 17.9789 11.2207 17.9642 11.2583 17.9491C11.5625 17.8275 12.1128 17.6799 12.9999 17.6799C13.8869 17.6799 14.4373 17.8275 14.7414 17.9491C14.7792 17.9642 14.8133 17.979 14.8441 17.9932C15.0648 20.0103 16.7741 21.5799 18.85 21.5799C21.0757 21.5799 22.88 19.7756 22.88 17.5499C22.88 15.3242 21.0757 13.5199 18.85 13.5199C17.0295 13.5199 15.4909 14.727 14.991 16.3845C14.5043 16.2342 13.853 16.1199 12.9999 16.1199C12.1468 16.1199 11.4956 16.2342 11.0089 16.3844C10.509 14.727 8.97043 13.5199 7.14997 13.5199ZM18.85 15.0799C17.4858 15.0799 16.38 16.1858 16.38 17.5499C16.38 18.9141 17.4858 20.0199 18.85 20.0199C20.2141 20.0199 21.32 18.9141 21.32 17.5499C21.32 16.1858 20.2141 15.0799 18.85 15.0799Z" fill="#09101C"/>
</svg>
