<svg width="26" height="26" viewBox="0 0 26 26" fill="none" xmlns="http://www.w3.org/2000/svg">
<path fill-rule="evenodd" clip-rule="evenodd" d="M8.44978 1.16992C8.03184 1.16992 7.65934 1.38601 7.39737 1.57456C7.10705 1.78352 6.80767 2.06658 6.51336 2.38815C5.92204 3.03425 5.28329 3.91074 4.69602 4.87564C4.10749 5.84262 3.55703 6.92075 3.15147 7.97748C2.75025 9.02291 2.47009 10.1005 2.47009 11.0499V11.8299H3.25009H22.7501H23.5301V11.0499C23.5301 9.13537 22.4005 7.32679 21.2078 6.04895C20.5997 5.39751 19.942 4.8473 19.3351 4.45396C19.0318 4.25737 18.7299 4.09265 18.4437 3.97474C18.1684 3.86131 17.8572 3.76992 17.5498 3.76992C16.9163 3.76992 16.4764 4.10449 16.1806 4.44256C15.9617 4.69281 15.765 5.01518 15.6068 5.27443L15.6068 5.27444L15.6067 5.27446C15.5716 5.33213 15.5383 5.38668 15.5071 5.43661C15.108 6.07539 14.8238 6.36992 14.3001 6.36992C14.1277 6.36992 13.7921 6.23229 13.2698 5.75928C12.7808 5.31642 12.2659 4.70941 11.7367 4.05805C11.6357 3.93384 11.5338 3.80742 11.4316 3.68055L11.4315 3.68042C11.0158 3.16468 10.5941 2.64151 10.2073 2.22892C9.96452 1.97003 9.70799 1.72418 9.44745 1.53834C9.20341 1.36428 8.85652 1.16992 8.44978 1.16992ZM21.8829 10.2699H4.10486C4.19579 9.75018 4.36747 9.16289 4.6079 8.53643C4.97411 7.58222 5.47976 6.58847 6.02861 5.6867C6.57872 4.78285 7.15863 3.99372 7.66415 3.44138C7.91826 3.16373 8.13685 2.96437 8.30867 2.84071C8.37279 2.79456 8.41984 2.76661 8.45112 2.74993C8.4733 2.76246 8.50327 2.78106 8.54157 2.80838C8.67972 2.90691 8.85488 3.06731 9.06923 3.29592C9.41207 3.66158 9.78477 4.12375 10.1964 4.63414C10.3035 4.76704 10.4133 4.90321 10.5259 5.0418C11.053 5.69043 11.635 6.38343 12.2226 6.91556C12.7769 7.41755 13.4975 7.92992 14.3001 7.92992C15.7264 7.92992 16.4169 6.92445 16.8301 6.26323C16.8834 6.17779 16.9315 6.09955 16.9757 6.02753C17.1258 5.78296 17.232 5.61005 17.3547 5.46979C17.4787 5.32804 17.5279 5.32936 17.5469 5.32987L17.5498 5.32992C17.5675 5.32992 17.6625 5.3401 17.8494 5.4171C18.0254 5.48962 18.2415 5.60419 18.4867 5.76307C18.9767 6.08067 19.5378 6.54609 20.0673 7.11339C20.9414 8.04989 21.6446 9.17013 21.8829 10.2699ZM4.68009 17.5499C4.68009 16.1858 5.78595 15.0799 7.15009 15.0799C8.51424 15.0799 9.62009 16.1858 9.62009 17.5499C9.62009 18.9141 8.51424 20.0199 7.15009 20.0199C5.78595 20.0199 4.68009 18.9141 4.68009 17.5499ZM7.15009 13.5199C4.92439 13.5199 3.12009 15.3242 3.12009 17.5499C3.12009 19.7756 4.92439 21.5799 7.15009 21.5799C9.22604 21.5799 10.9354 20.0103 11.156 17.9931C11.1867 17.9789 11.2208 17.9642 11.2584 17.9491C11.5626 17.8275 12.1129 17.6799 13 17.6799C13.8871 17.6799 14.4374 17.8275 14.7415 17.9491C14.7793 17.9642 14.8134 17.979 14.8442 17.9932C15.0649 20.0103 16.7742 21.5799 18.8501 21.5799C21.0758 21.5799 22.8801 19.7756 22.8801 17.5499C22.8801 15.3242 21.0758 13.5199 18.8501 13.5199C17.0296 13.5199 15.4911 14.727 14.9912 16.3845C14.5045 16.2342 13.8531 16.1199 13 16.1199C12.147 16.1199 11.4957 16.2342 11.009 16.3844C10.5091 14.727 8.97056 13.5199 7.15009 13.5199ZM18.8501 15.0799C17.486 15.0799 16.3801 16.1858 16.3801 17.5499C16.3801 18.9141 17.486 20.0199 18.8501 20.0199C20.2142 20.0199 21.3201 18.9141 21.3201 17.5499C21.3201 16.1858 20.2142 15.0799 18.8501 15.0799Z" />
</svg>
