<svg width="26" height="26" viewBox="0 0 26 26" fill="none" xmlns="http://www.w3.org/2000/svg">
<g clip-path="url(#clip0_303_48405)">
<path fill-rule="evenodd" clip-rule="evenodd" d="M4.02985 12.9997C4.02985 8.04573 8.04585 4.02973 12.9998 4.02973C17.9538 4.02973 21.9699 8.04573 21.9699 12.9997C21.9699 15.2873 21.1135 17.3749 19.7039 18.9594C19.4567 18.6183 19.1875 18.3124 18.8979 18.0389C17.2152 16.4496 15.0127 16.1197 12.9999 16.1197C10.987 16.1197 8.78454 16.4496 7.10178 18.0389C6.81224 18.3124 6.54305 18.6183 6.29577 18.9594C4.88618 17.3749 4.02985 15.2873 4.02985 12.9997ZM7.44338 20.042C8.97129 21.2492 10.9014 21.9697 12.9998 21.9697C15.0983 21.9697 17.0284 21.2492 18.5563 20.042C18.3294 19.7031 18.0843 19.4162 17.8268 19.173C16.5846 17.9998 14.887 17.6797 12.9999 17.6797C11.1127 17.6797 9.41516 17.9998 8.17292 19.173C7.91544 19.4162 7.67026 19.7031 7.44338 20.042ZM12.9998 2.46973C7.18429 2.46973 2.46985 7.18417 2.46985 12.9997C2.46985 18.8153 7.18429 23.5297 12.9998 23.5297C18.8154 23.5297 23.5299 18.8153 23.5299 12.9997C23.5299 7.18417 18.8154 2.46973 12.9998 2.46973ZM4.41985 26.6497C4.41985 26.4288 4.42245 26.2122 4.42761 25.9997H21.5721C21.5773 26.2122 21.5799 26.4288 21.5799 26.6497V27.4297H20.7999H5.19986H4.41985V26.6497ZM10.5299 10.3997C10.5299 9.03555 11.6357 7.9297 12.9999 7.9297C14.364 7.9297 15.4699 9.03555 15.4699 10.3997C15.4699 11.7638 14.364 12.8697 12.9999 12.8697C11.6357 12.8697 10.5299 11.7638 10.5299 10.3997ZM12.9999 6.36969C10.7742 6.36969 8.96987 8.17399 8.96987 10.3997C8.96987 12.6254 10.7742 14.4297 12.9999 14.4297C15.2256 14.4297 17.0299 12.6254 17.0299 10.3997C17.0299 8.17399 15.2256 6.36969 12.9999 6.36969Z" />
</g>
<defs>
<clipPath id="clip0_303_48405">
<rect width="26" height="26" fill="white"/>
</clipPath>
</defs>
</svg>
