<svg width="26" height="26" viewBox="0 0 26 26" fill="none" xmlns="http://www.w3.org/2000/svg">
<g clip-path="url(#clip0_212_48302)">
<path fill-rule="evenodd" clip-rule="evenodd" d="M4.02997 12.9997C4.02997 8.04573 8.04598 4.02973 13 4.02973C17.954 4.02973 21.97 8.04573 21.97 12.9997C21.97 15.2873 21.1136 17.3749 19.7041 18.9594C19.4568 18.6183 19.1876 18.3124 18.898 18.0389C17.2153 16.4496 15.0129 16.1197 13 16.1197C10.9871 16.1197 8.78467 16.4496 7.10191 18.0389C6.81236 18.3124 6.54317 18.6183 6.29589 18.9594C4.8863 17.3749 4.02997 15.2873 4.02997 12.9997ZM7.4435 20.042C8.97141 21.2492 10.9015 21.9697 13 21.9697C15.0984 21.9697 17.0285 21.2492 18.5564 20.042C18.3296 19.7031 18.0844 19.4162 17.8269 19.173C16.5847 17.9998 14.8871 17.6797 13 17.6797C11.1128 17.6797 9.41528 17.9998 8.17304 19.173C7.91557 19.4162 7.67038 19.7031 7.4435 20.042ZM13 2.46973C7.18441 2.46973 2.46997 7.18417 2.46997 12.9997C2.46997 18.8153 7.18441 23.5297 13 23.5297C18.8155 23.5297 23.53 18.8153 23.53 12.9997C23.53 7.18417 18.8155 2.46973 13 2.46973ZM4.41998 26.6497C4.41998 26.4288 4.42258 26.2122 4.42773 25.9997H21.5722C21.5774 26.2122 21.58 26.4288 21.58 26.6497V27.4297H20.8H5.19998H4.41998V26.6497ZM10.53 10.3997C10.53 9.03555 11.6358 7.9297 13 7.9297C14.3641 7.9297 15.47 9.03555 15.47 10.3997C15.47 11.7638 14.3641 12.8697 13 12.8697C11.6358 12.8697 10.53 11.7638 10.53 10.3997ZM13 6.36969C10.7743 6.36969 8.96999 8.17399 8.96999 10.3997C8.96999 12.6254 10.7743 14.4297 13 14.4297C15.2257 14.4297 17.03 12.6254 17.03 10.3997C17.03 8.17399 15.2257 6.36969 13 6.36969Z" fill="#09101C"/>
</g>
<defs>
<clipPath id="clip0_212_48302">
<rect width="26" height="26" fill="white"/>
</clipPath>
</defs>
</svg>
