<svg width="26" height="26" viewBox="0 0 26 26" fill="none" xmlns="http://www.w3.org/2000/svg">
<path fill-rule="evenodd" clip-rule="evenodd" d="M4.02973 18.8497C4.02973 17.1265 5.4266 15.7297 7.14973 15.7297C8.87286 15.7297 10.2697 17.1265 10.2697 18.8497C10.2697 20.5728 8.87286 21.9697 7.14973 21.9697C5.4266 21.9697 4.02973 20.5728 4.02973 18.8497ZM7.14973 14.1697C4.56503 14.1697 2.46973 16.265 2.46973 18.8497C2.46973 21.4344 4.56503 23.5297 7.14973 23.5297C9.73442 23.5297 11.8297 21.4344 11.8297 18.8497C11.8297 16.265 9.73442 14.1697 7.14973 14.1697ZM7.14985 19.8246C7.68833 19.8246 8.12485 19.3881 8.12485 18.8496C8.12485 18.3112 7.68833 17.8746 7.14985 17.8746C6.61138 17.8746 6.17485 18.3112 6.17485 18.8496C6.17485 19.3881 6.61138 19.8246 7.14985 19.8246Z" />
<path fill-rule="evenodd" clip-rule="evenodd" d="M18.85 2.46973C18.0221 2.46973 17.3056 2.51008 16.7051 2.6396C16.0958 2.77102 15.554 3.00504 15.1297 3.42943C14.7053 3.85381 14.4712 4.3955 14.3398 5.00479C14.2103 5.6053 14.1699 6.32175 14.1699 7.14969C14.1699 7.97764 14.2103 8.69409 14.3398 9.2946C14.4712 9.90389 14.7053 10.4456 15.1297 10.87C15.554 11.2943 16.0958 11.5284 16.7051 11.6598C17.3056 11.7893 18.0221 11.8297 18.85 11.8297C19.678 11.8297 20.3945 11.7893 20.995 11.6598C21.6043 11.5284 22.146 11.2944 22.5704 10.87C22.9948 10.4457 23.2288 9.90397 23.3603 9.29467C23.4898 8.69416 23.5302 7.97769 23.5302 7.1497C23.5302 6.32172 23.4898 5.60524 23.3603 5.00472C23.2289 4.39542 22.9948 3.85373 22.5704 3.42935C22.146 3.00497 21.6043 2.77097 20.995 2.63958C20.3945 2.51007 19.678 2.46973 18.85 2.46973ZM15.73 7.14969C15.73 6.35265 15.7709 5.76911 15.8648 5.33369C15.9568 4.90705 16.0884 4.67687 16.2328 4.53251C16.3771 4.38815 16.6073 4.25655 17.034 4.16453C17.4694 4.07061 18.053 4.02972 18.85 4.02972C19.6471 4.02972 20.2307 4.0706 20.6661 4.16451C21.0928 4.25652 21.323 4.38811 21.4673 4.53246C21.6117 4.67681 21.7433 4.90698 21.8353 5.33363C21.9293 5.76905 21.9701 6.3526 21.9701 7.14969C21.9701 7.94677 21.9292 8.53033 21.8353 8.96576C21.7433 9.39241 21.6117 9.62258 21.4673 9.76693C21.323 9.91128 21.0928 10.0429 20.6661 10.1349C20.2307 10.2288 19.6471 10.2697 18.85 10.2697C18.053 10.2697 17.4694 10.2288 17.034 10.1349C16.6073 10.0428 16.3771 9.91124 16.2328 9.76688C16.0884 9.62252 15.9568 9.39235 15.8648 8.9657C15.7709 8.53028 15.73 7.94674 15.73 7.14969ZM18.85 6.1747C18.0375 6.1747 17.875 6.3372 17.875 7.14969C17.875 7.96219 18.0375 8.12469 18.85 8.12469C19.6625 8.12469 19.825 7.96223 19.8251 7.14969C19.8251 6.33716 19.6625 6.1747 18.85 6.1747Z" />
<path fill-rule="evenodd" clip-rule="evenodd" d="M6.67348 1.93166C6.7681 1.88937 6.94281 1.81982 7.14995 1.81982C7.35708 1.81982 7.53179 1.88937 7.62642 1.93166C7.73874 1.98186 7.84964 2.04594 7.95212 2.11143C8.15822 2.24315 8.39089 2.41986 8.63048 2.61686C9.11298 3.01358 9.68064 3.53993 10.2202 4.07953C10.7598 4.61913 11.2862 5.18679 11.6829 5.66929C11.8799 5.90888 12.0566 6.14155 12.1883 6.34765C12.2538 6.45013 12.3179 6.56103 12.3681 6.67335C12.4104 6.76798 12.4799 6.94269 12.4799 7.14982C12.4799 7.35696 12.4104 7.53167 12.3681 7.62629C12.3179 7.73861 12.2538 7.84951 12.1883 7.95199C12.0566 8.1581 11.8799 8.39077 11.6829 8.63036C11.2862 9.11286 10.7598 9.68052 10.2202 10.2201C9.68064 10.7597 9.11298 11.2861 8.63048 11.6828C8.39089 11.8798 8.15822 12.0565 7.95212 12.1882C7.84964 12.2537 7.73874 12.3178 7.62642 12.368C7.53179 12.4103 7.35708 12.4798 7.14995 12.4798C6.94281 12.4798 6.7681 12.4103 6.67348 12.368C6.56116 12.3178 6.45026 12.2537 6.34778 12.1882C6.14167 12.0565 5.909 11.8798 5.66941 11.6828C5.18691 11.2861 4.61925 10.7597 4.07965 10.2201C3.54005 9.68052 3.01371 9.11286 2.61699 8.63036C2.41999 8.39077 2.24328 8.1581 2.11155 7.95199C2.04606 7.84951 1.98198 7.73861 1.93178 7.62629C1.88949 7.53167 1.81995 7.35696 1.81995 7.14982C1.81995 6.94269 1.88949 6.76798 1.93178 6.67335C1.98198 6.56103 2.04606 6.45013 2.11155 6.34765C2.24328 6.14155 2.41999 5.90888 2.61699 5.66929C3.01371 5.18679 3.54005 4.61913 4.07965 4.07953C4.61925 3.53993 5.18691 3.01358 5.66941 2.61686C5.909 2.41986 6.14167 2.24315 6.34778 2.11143C6.45026 2.04594 6.56116 1.98186 6.67348 1.93166ZM3.35602 7.30986C3.35606 7.30977 3.3561 7.30969 3.35614 7.30959L3.35602 7.30986ZM3.45076 7.14982C3.53527 7.02259 3.65981 6.85727 3.82197 6.66005C4.17681 6.22849 4.66609 5.69927 5.18274 5.18262C5.69939 4.66597 6.22861 4.17669 6.66017 3.82185C6.85739 3.65969 7.02272 3.53514 7.14995 3.45063C7.27717 3.53514 7.4425 3.65969 7.63972 3.82185C8.07128 4.17669 8.6005 4.66597 9.11715 5.18262C9.6338 5.69927 10.1231 6.22849 10.4779 6.66005C10.6401 6.85727 10.7646 7.02259 10.8491 7.14982C10.7646 7.27705 10.6401 7.44238 10.4779 7.6396C10.1231 8.07116 9.6338 8.60038 9.11715 9.11703C8.6005 9.63368 8.07128 10.123 7.63972 10.4778C7.4425 10.64 7.27717 10.7645 7.14995 10.849C7.02272 10.7645 6.85739 10.64 6.66017 10.4778C6.22861 10.123 5.69939 9.63368 5.18274 9.11703C4.66609 8.60038 4.17681 8.07116 3.82197 7.6396C3.65981 7.44238 3.53527 7.27705 3.45076 7.14982ZM6.98991 10.9437C6.97793 10.9491 6.97867 10.9477 6.99018 10.9436L6.98991 10.9437ZM7.30972 10.9436C7.32122 10.9477 7.32196 10.9491 7.30999 10.9437L7.30972 10.9436ZM10.9439 7.30986C10.9492 7.32184 10.9478 7.3211 10.9437 7.30959L10.9439 7.30986ZM10.9437 6.99005C10.9478 6.97855 10.9492 6.97781 10.9439 6.98978L10.9437 6.99005ZM7.30999 3.3559C7.32196 3.35055 7.32122 3.35196 7.30971 3.35602L7.30999 3.3559ZM6.99018 3.35602C6.97867 3.35196 6.97793 3.35055 6.98991 3.3559L6.99018 3.35602ZM3.35614 6.99006C3.3561 6.98996 3.35606 6.98987 3.35602 6.98978L3.35614 6.99006Z" />
<path fill-rule="evenodd" clip-rule="evenodd" d="M18.3735 13.6316C18.4682 13.5893 18.6429 13.5198 18.85 13.5198C19.0572 13.5198 19.2319 13.5893 19.3265 13.6316C19.4388 13.6818 19.5497 13.7459 19.6522 13.8114C19.8583 13.9431 20.091 14.1198 20.3306 14.3168C20.8131 14.7135 21.3807 15.2399 21.9203 15.7795C22.4599 16.3191 22.9863 16.8867 23.383 17.3692C23.58 17.6088 23.7567 17.8415 23.8884 18.0476C23.9539 18.1501 24.018 18.261 24.0682 18.3733C24.1105 18.4679 24.18 18.6426 24.18 18.8498C24.18 19.0569 24.1105 19.2316 24.0682 19.3262C24.018 19.4386 23.9539 19.5495 23.8884 19.6519C23.7567 19.8581 23.58 20.0907 23.383 20.3303C22.9863 20.8128 22.4599 21.3805 21.9203 21.9201C21.3807 22.4597 20.8131 22.986 20.3306 23.3827C20.091 23.5797 19.8583 23.7564 19.6522 23.8882C19.5497 23.9537 19.4388 24.0177 19.3265 24.0679C19.2319 24.1102 19.0572 24.1798 18.85 24.1798C18.6429 24.1798 18.4682 24.1102 18.3735 24.0679C18.2612 24.0177 18.1503 23.9537 18.0478 23.8882C17.8417 23.7564 17.6091 23.5797 17.3695 23.3827C16.887 22.986 16.3193 22.4597 15.7797 21.9201C15.2401 21.3805 14.7138 20.8128 14.3171 20.3303C14.1201 20.0907 13.9433 19.8581 13.8116 19.6519C13.7461 19.5495 13.6821 19.4386 13.6319 19.3262C13.5896 19.2316 13.52 19.0569 13.52 18.8498C13.52 18.6426 13.5896 18.4679 13.6319 18.3733C13.6821 18.261 13.7461 18.1501 13.8116 18.0476C13.9433 17.8415 14.1201 17.6088 14.3171 17.3692C14.7138 16.8867 15.2401 16.3191 15.7797 15.7795C16.3193 15.2399 16.887 14.7135 17.3695 14.3168C17.6091 14.1198 17.8417 13.9431 18.0478 13.8114C18.1503 13.7459 18.2612 13.6818 18.3735 13.6316ZM15.0561 19.0098C15.0561 19.0097 15.0562 19.0096 15.0562 19.0095L15.0561 19.0098ZM15.1508 18.8498C15.2353 18.7225 15.3599 18.5572 15.522 18.36C15.8769 17.9284 16.3662 17.3992 16.8828 16.8826C17.3995 16.3659 17.9287 15.8766 18.3602 15.5218C18.5575 15.3596 18.7228 15.2351 18.85 15.1506C18.9772 15.2351 19.1426 15.3596 19.3398 15.5218C19.7714 15.8766 20.3006 16.3659 20.8172 16.8826C21.3339 17.3992 21.8232 17.9284 22.178 18.36C22.3402 18.5572 22.4647 18.7225 22.5492 18.8498C22.4647 18.977 22.3402 19.1423 22.178 19.3395C21.8232 19.7711 21.3339 20.3003 20.8172 20.817C20.3006 21.3336 19.7714 21.8229 19.3398 22.1778C19.1426 22.3399 18.9772 22.4645 18.85 22.549C18.7228 22.4645 18.5575 22.3399 18.3602 22.1778C17.9287 21.8229 17.3995 21.3336 16.8828 20.817C16.3662 20.3003 15.8769 19.7711 15.522 19.3395C15.3599 19.1423 15.2353 18.977 15.1508 18.8498ZM18.69 22.6437C18.678 22.649 18.6787 22.6476 18.6902 22.6436L18.69 22.6437ZM19.0098 22.6436C19.0213 22.6476 19.022 22.649 19.0101 22.6437L19.0098 22.6436ZM22.6439 19.0098C22.6493 19.0218 22.6479 19.021 22.6438 19.0095L22.6439 19.0098ZM22.6438 18.69C22.6479 18.6785 22.6493 18.6778 22.6439 18.6897L22.6438 18.69ZM19.0101 15.0559C19.022 15.0505 19.0213 15.0519 19.0098 15.056L19.0101 15.0559ZM18.6902 15.056C18.6787 15.0519 18.678 15.0505 18.69 15.0559L18.6902 15.056ZM15.0562 18.69C15.0562 18.6899 15.0561 18.6898 15.0561 18.6897L15.0562 18.69Z" />
</svg>
