<svg width="26" height="26" viewBox="0 0 26 26" fill="none" xmlns="http://www.w3.org/2000/svg">
<path fill-rule="evenodd" clip-rule="evenodd" d="M12.014 4.10433C13.6584 3.85453 15.3363 4.23521 16.7923 5.20516L17.6572 3.90687C15.8914 2.73052 13.8237 2.25153 11.7797 2.56203C9.73747 2.87225 7.86203 3.94839 6.43529 5.59463C5.00997 7.23922 4.10648 9.3654 3.8471 11.6387C3.58771 13.912 3.98444 16.2255 4.98431 18.2238C5.98447 20.2226 7.5402 21.8082 9.42975 22.7113C11.3228 23.616 13.4304 23.777 15.4172 23.1627C17.4009 22.5494 19.1306 21.2054 20.3531 19.3671C21.5749 17.5298 22.2298 15.2917 22.2298 12.9997H20.6698C20.6698 13.3813 20.6489 13.7604 20.608 14.135C20.5955 14.1609 20.5798 14.1914 20.5607 14.2258C20.4872 14.3582 20.3662 14.5404 20.1832 14.7233C19.8322 15.0744 19.2144 15.4699 18.1348 15.4699C17.0552 15.4699 16.4374 15.0744 16.0863 14.7233C15.9034 14.5404 15.7824 14.3582 15.7088 14.2258C15.6722 14.1599 15.6482 14.1079 15.6347 14.0764C15.628 14.0607 15.624 14.0503 15.6224 14.0461L15.6218 14.0446L15.6229 14.0476L15.6237 14.0501L15.6242 14.0516L15.6245 14.0524C15.6246 14.0528 15.6247 14.0532 14.8848 14.2999C14.1448 14.5465 14.145 14.547 14.1451 14.5474L14.1454 14.5484L14.1461 14.5504L14.1477 14.555L14.1516 14.5663L14.163 14.5974C14.1722 14.6218 14.1847 14.6533 14.2009 14.6909C14.2331 14.7661 14.2801 14.8664 14.3451 14.9834C14.4747 15.2165 14.6787 15.5219 14.9832 15.8264C15.6072 16.4503 16.6144 17.0299 18.1348 17.0299C18.8681 17.0299 19.4821 16.895 19.9912 16.6854C19.7427 17.3293 19.4287 17.9399 19.0541 18.5032C18.0119 20.0704 16.5662 21.1746 14.9564 21.6723C13.3497 22.169 11.6465 22.0418 10.1025 21.3038C8.55492 20.5642 7.23939 19.2444 6.37941 17.5257C5.51916 15.8065 5.17084 13.7981 5.39704 11.8155C5.62325 9.83295 6.40886 8.00705 7.61416 6.61631C8.81805 5.22722 10.3677 4.3544 12.014 4.10433ZM13.6498 11.0497C14.3677 11.0497 14.9498 10.1767 14.9498 9.09975C14.9498 8.0228 14.3677 7.14976 13.6498 7.14976C12.9318 7.14976 12.3498 8.0228 12.3498 9.09975C12.3498 10.1767 12.9318 11.0497 13.6498 11.0497ZM22.0998 9.09975C22.0998 10.1767 21.5177 11.0497 20.7998 11.0497C20.0818 11.0497 19.4998 10.1767 19.4998 9.09975C19.4998 8.0228 20.0818 7.14976 20.7998 7.14976C21.5177 7.14976 22.0998 8.0228 22.0998 9.09975Z" fill="#09101C"/>
</svg>
