<svg width="26" height="26" viewBox="0 0 26 26" fill="none" xmlns="http://www.w3.org/2000/svg">
<path fill-rule="evenodd" clip-rule="evenodd" d="M12.0141 4.10433C13.6585 3.85453 15.3364 4.23521 16.7925 5.20516L17.6573 3.90687C15.8915 2.73052 13.8238 2.25153 11.7798 2.56203C9.7376 2.87225 7.86215 3.94839 6.43541 5.59463C5.01009 7.23922 4.1066 9.3654 3.84722 11.6387C3.58783 13.912 3.98456 16.2255 4.98444 18.2238C5.98459 20.2226 7.54033 21.8082 9.42987 22.7113C11.3229 23.616 13.4305 23.777 15.4173 23.1627C17.4011 22.5494 19.1307 21.2054 20.3532 19.3671C21.5751 17.5298 22.2299 15.2917 22.2299 12.9997H20.6699C20.6699 13.3813 20.6491 13.7604 20.6081 14.135C20.5956 14.1609 20.5799 14.1914 20.5609 14.2258C20.4873 14.3582 20.3663 14.5404 20.1834 14.7233C19.8323 15.0744 19.2145 15.4699 18.1349 15.4699C17.0553 15.4699 16.4375 15.0744 16.0864 14.7233C15.9035 14.5404 15.7825 14.3582 15.7089 14.2258C15.6724 14.1599 15.6483 14.1079 15.6348 14.0764C15.6281 14.0607 15.6241 14.0503 15.6225 14.0461L15.6219 14.0446L15.623 14.0476L15.6238 14.0501L15.6243 14.0516L15.6246 14.0524C15.6247 14.0528 15.6249 14.0532 14.8849 14.2999C14.1449 14.5465 14.1451 14.547 14.1452 14.5474L14.1455 14.5484L14.1462 14.5504L14.1478 14.555L14.1517 14.5663L14.1632 14.5974C14.1724 14.6218 14.1848 14.6533 14.201 14.6909C14.2332 14.7661 14.2802 14.8664 14.3452 14.9834C14.4748 15.2165 14.6788 15.5219 14.9834 15.8264C15.6073 16.4503 16.6145 17.0299 18.1349 17.0299C18.8682 17.0299 19.4822 16.895 19.9913 16.6854C19.7428 17.3293 19.4289 17.9399 19.0542 18.5032C18.012 20.0704 16.5663 21.1746 14.9565 21.6723C13.3498 22.169 11.6466 22.0418 10.1026 21.3038C8.55505 20.5642 7.23951 19.2444 6.37954 17.5257C5.51928 15.8065 5.17096 13.7981 5.39716 11.8155C5.62338 9.83295 6.40898 8.00705 7.61429 6.61631C8.81817 5.22722 10.3679 4.3544 12.0141 4.10433ZM13.6499 11.0497C14.3679 11.0497 14.9499 10.1767 14.9499 9.09975C14.9499 8.0228 14.3679 7.14976 13.6499 7.14976C12.9319 7.14976 12.3499 8.0228 12.3499 9.09975C12.3499 10.1767 12.9319 11.0497 13.6499 11.0497ZM22.0999 9.09975C22.0999 10.1767 21.5179 11.0497 20.7999 11.0497C20.0819 11.0497 19.4999 10.1767 19.4999 9.09975C19.4999 8.0228 20.0819 7.14976 20.7999 7.14976C21.5179 7.14976 22.0999 8.0228 22.0999 9.09975Z" fill="#09101C"/>
</svg>
