<svg width="26" height="26" viewBox="0 0 26 26" fill="none" xmlns="http://www.w3.org/2000/svg">
<path fill-rule="evenodd" clip-rule="evenodd" d="M12.9999 4.02973C11.6358 4.02973 10.5299 5.13558 10.5299 6.49973C10.5299 7.86387 11.6358 8.96973 12.9999 8.96973C14.3641 8.96973 15.4699 7.86387 15.4699 6.49973C15.4699 5.13558 14.3641 4.02973 12.9999 4.02973ZM8.96993 6.49973C8.96993 4.27402 10.7742 2.46973 12.9999 2.46973C15.2256 2.46973 17.0299 4.27402 17.0299 6.49973C17.0299 8.72543 15.2256 10.5297 12.9999 10.5297C10.7742 10.5297 8.96993 8.72543 8.96993 6.49973ZM11.699 21.9698H5.99183C6.10516 18.3447 7.01471 16.367 8.17298 15.2731C9.39811 14.116 11.0661 13.7887 12.922 13.7799C13.4088 13.2113 13.9761 12.7135 14.6061 12.3042C14.0662 12.2423 13.5266 12.2198 12.9999 12.2198C10.987 12.2198 8.78461 12.5497 7.10185 14.1389C5.41563 15.7315 4.41992 18.4256 4.41992 22.7498V23.5298H5.19992H12.6094C12.2488 23.0497 11.9423 22.5267 11.699 21.9698ZM18.8499 13.7797C16.0498 13.7797 13.7799 16.0496 13.7799 18.8497C13.7799 21.6498 16.0498 23.9197 18.8499 23.9197C21.65 23.9197 23.9199 21.6498 23.9199 18.8497C23.9199 16.0496 21.65 13.7797 18.8499 13.7797ZM12.2199 18.8497C12.2199 15.188 15.1883 12.2197 18.8499 12.2197C22.5116 12.2197 25.4799 15.188 25.4799 18.8497C25.4799 22.5113 22.5116 25.4797 18.8499 25.4797C15.1883 25.4797 12.2199 22.5113 12.2199 18.8497ZM21.4499 18.0697H16.2499V19.6297H21.4499V18.0697Z" />
</svg>
