<svg width="26" height="26" viewBox="0 0 26 26" fill="none" xmlns="http://www.w3.org/2000/svg">
<path fill-rule="evenodd" clip-rule="evenodd" d="M9.16346 18.7132L4.61306 13.5131L4.16357 12.9995L4.61307 12.4858L9.16346 7.28589L10.3374 8.31321L6.91903 12.2196H13.0005C14.6408 12.2196 16.0072 12.3006 17.1256 12.5418C18.2529 12.7849 19.1805 13.2018 19.8892 13.9105C20.598 14.6193 21.0148 15.5469 21.258 16.6741C21.4993 17.7926 21.5804 19.1591 21.5805 20.7995L20.0205 20.7996C20.0204 19.1901 19.9388 17.9565 19.7331 17.0031C19.5293 16.0585 19.2149 15.4424 18.7861 15.0136C18.3574 14.5849 17.7413 14.2705 16.7967 14.0667C15.8434 13.8611 14.6099 13.7796 13.0005 13.7796H6.91915L10.3374 17.6859L9.16346 18.7132Z" fill="#09101C"/>
</svg>
