<svg width="26" height="26" viewBox="0 0 26 26" fill="none" xmlns="http://www.w3.org/2000/svg">
<path d="M1.30005 13C1.30005 9.3657 1.30005 7.54853 1.89379 6.11512C2.68544 4.2039 4.2039 2.68544 6.11512 1.89379C7.54853 1.30005 9.3657 1.30005 13 1.30005V1.30005C16.6344 1.30005 18.4516 1.30005 19.885 1.89379C21.7962 2.68544 23.3147 4.2039 24.1063 6.11512C24.7 7.54853 24.7 9.3657 24.7 13V13C24.7 16.6344 24.7 18.4516 24.1063 19.885C23.3147 21.7962 21.7962 23.3147 19.885 24.1063C18.4516 24.7 16.6344 24.7 13 24.7V24.7C9.3657 24.7 7.54853 24.7 6.11512 24.1063C4.2039 23.3147 2.68544 21.7962 1.89379 19.885C1.30005 18.4516 1.30005 16.6344 1.30005 13V13Z" fill="#2A4AF5"/>
<path d="M10.2732 18.2001L14.813 9.22192V9.14575H9.56226V7.80005H16.438V9.19145L11.9134 18.2001H10.2732Z" fill="white"/>
</svg>
