<svg width="26" height="26" viewBox="0 0 26 26" fill="none" xmlns="http://www.w3.org/2000/svg">
<path fill-rule="evenodd" clip-rule="evenodd" d="M12.9999 2.84595L13.5246 3.32293L20.6746 9.82293L19.6252 10.9772L13.7798 5.66324V18.2001H12.2198V5.66339L6.37457 10.9772L5.3252 9.82293L12.4752 3.32293L12.9999 2.84595ZM4.10122 18.795C3.9834 18.2264 3.90314 17.5959 3.8512 16.9001H5.41584C5.46351 17.493 5.53295 18.016 5.62877 18.4785C5.84386 19.5165 6.17989 20.1892 6.64542 20.6547C7.11096 21.1202 7.78361 21.4563 8.82167 21.6713C9.86828 21.8882 11.2251 21.97 13.0002 21.97C14.7752 21.97 16.1321 21.8883 17.1787 21.6714C18.2167 21.4563 18.8894 21.1203 19.3549 20.6548C19.8204 20.1892 20.1565 19.5166 20.3716 18.4785C20.4674 18.0161 20.5368 17.493 20.5845 16.9001H22.1491C22.0972 17.5959 22.0169 18.2264 21.8991 18.795C21.647 20.0117 21.2112 21.0047 20.458 21.7579C19.7048 22.5111 18.7118 22.9469 17.4952 23.199C16.2871 23.4493 14.8001 23.53 13.0002 23.53C11.2002 23.53 9.71324 23.4492 8.50516 23.1989C7.28852 22.9468 6.29555 22.511 5.54235 21.7578C4.78914 21.0046 4.35331 20.0116 4.10122 18.795Z" fill="#09101C"/>
</svg>
