<svg width="26" height="26" viewBox="0 0 26 26" fill="none" xmlns="http://www.w3.org/2000/svg">
<path d="M1.30005 13C1.30005 9.3657 1.30005 7.54853 1.89379 6.11512C2.68544 4.2039 4.2039 2.68544 6.11512 1.89379C7.54853 1.30005 9.3657 1.30005 13 1.30005V1.30005C16.6344 1.30005 18.4516 1.30005 19.885 1.89379C21.7962 2.68544 23.3147 4.2039 24.1063 6.11512C24.7 7.54853 24.7 9.3657 24.7 13V13C24.7 16.6344 24.7 18.4516 24.1063 19.885C23.3147 21.7962 21.7962 23.3147 19.885 24.1063C18.4516 24.7 16.6344 24.7 13 24.7V24.7C9.3657 24.7 7.54853 24.7 6.11512 24.1063C4.2039 23.3147 2.68544 21.7962 1.89379 19.885C1.30005 18.4516 1.30005 16.6344 1.30005 13V13Z" fill="#2A4AF5"/>
<path d="M13.0915 18.3421C12.6277 18.3353 12.1706 18.2507 11.7204 18.0882C11.2735 17.9257 10.8672 17.6549 10.5016 17.2757C10.136 16.8965 9.84315 16.387 9.6231 15.7472C9.40643 15.1073 9.2981 14.3084 9.2981 13.3503C9.2981 12.443 9.38781 11.6373 9.56724 10.9331C9.75005 10.2289 10.0124 9.6348 10.3543 9.15068C10.6963 8.66318 11.1093 8.29248 11.5934 8.03857C12.0775 7.78467 12.6209 7.65771 13.2235 7.65771C13.843 7.65771 14.3931 7.77959 14.8739 8.02334C15.3546 8.26709 15.7439 8.60394 16.0418 9.03389C16.3431 9.46383 16.5344 9.95303 16.6157 10.5015H15.0668C14.9619 10.0681 14.7537 9.71436 14.4422 9.44014C14.1308 9.16592 13.7245 9.02881 13.2235 9.02881C12.4618 9.02881 11.8676 9.36058 11.4411 10.0241C11.0179 10.6877 10.8046 11.6102 10.8012 12.7917H10.8774C11.0568 12.4972 11.2769 12.2466 11.5375 12.0401C11.8016 11.8302 12.0961 11.6694 12.4211 11.5577C12.7495 11.4426 13.0948 11.3851 13.4571 11.3851C14.0597 11.3851 14.6047 11.5323 15.0922 11.8269C15.5831 12.118 15.9741 12.5209 16.2653 13.0354C16.5564 13.55 16.702 14.1391 16.702 14.8026C16.702 15.4662 16.5514 16.0671 16.25 16.6054C15.9521 17.1437 15.5323 17.5702 14.9907 17.8851C14.449 18.1965 13.8159 18.3489 13.0915 18.3421ZM13.0864 17.0218C13.4859 17.0218 13.843 16.9236 14.1579 16.7272C14.4727 16.5309 14.7215 16.2668 14.9043 15.9351C15.0872 15.6033 15.1786 15.2326 15.1786 14.823C15.1786 14.4235 15.0889 14.0595 14.9094 13.7312C14.7334 13.4028 14.4896 13.1421 14.1782 12.9491C13.8701 12.7562 13.518 12.6597 13.1219 12.6597C12.8206 12.6597 12.5413 12.7172 12.284 12.8323C12.0301 12.9474 11.8067 13.1065 11.6137 13.3097C11.4208 13.5128 11.2684 13.7464 11.1567 14.0105C11.0484 14.2711 10.9942 14.547 10.9942 14.8382C10.9942 15.2275 11.0839 15.5881 11.2633 15.9198C11.4461 16.2516 11.695 16.519 12.0098 16.7222C12.328 16.9219 12.6869 17.0218 13.0864 17.0218Z" fill="white"/>
</svg>
