<svg width="26" height="26" viewBox="0 0 26 26" fill="none" xmlns="http://www.w3.org/2000/svg">
<path fill-rule="evenodd" clip-rule="evenodd" d="M4.02973 12.9997C4.02973 10.895 4.11178 9.29232 4.35064 8.05985C4.58795 6.83532 4.96694 6.0481 5.50752 5.50752C6.0481 4.96694 6.83532 4.58795 8.05985 4.35064C9.29232 4.11178 10.895 4.02973 12.9997 4.02973C15.1044 4.02973 16.7071 4.11178 17.9396 4.35064C19.1641 4.58795 19.9513 4.96694 20.4919 5.50751C21.0324 6.04809 21.4114 6.83531 21.6487 8.05985C21.8876 9.29233 21.9697 10.8951 21.9697 12.9997C21.9697 13.1761 21.9673 13.3494 21.9623 13.5199C20.2105 13.5199 18.814 13.5221 17.7164 13.6696C16.5679 13.824 15.6307 14.1504 14.8905 14.8906C14.1502 15.6308 13.8239 16.5681 13.6695 17.7166C13.5219 18.8141 13.5197 20.2105 13.5197 21.9623C13.3493 21.9672 13.176 21.9697 12.9997 21.9697C10.895 21.9697 9.29232 21.8877 8.05985 21.6488C6.83532 21.4115 6.0481 21.0325 5.50752 20.4919C4.96694 19.9514 4.58795 19.1641 4.35064 17.9396C4.11178 16.7071 4.02973 15.1044 4.02973 12.9997ZM15.0798 21.8386C17.135 21.5609 18.6734 20.8481 19.7608 19.7607C20.8481 18.6734 21.5609 17.1351 21.8386 15.0799C20.115 15.0803 18.8749 15.0879 17.9243 15.2157C16.9488 15.3469 16.3956 15.5917 15.9936 15.9937C15.5915 16.3958 15.3467 16.9489 15.2156 17.9245C15.0878 18.8751 15.0802 20.1151 15.0798 21.8386ZM12.9997 2.46973C10.8794 2.46973 9.15088 2.55017 7.76304 2.81913C6.36726 3.08963 5.2451 3.56376 4.40443 4.40443C3.56376 5.2451 3.08963 6.36726 2.81913 7.76304C2.55017 9.15088 2.46973 10.8794 2.46973 12.9997C2.46973 15.12 2.55017 16.8486 2.81913 18.2364C3.08963 19.6322 3.56376 20.7544 4.40443 21.595C5.2451 22.4357 6.36726 22.9098 7.76304 23.1803C9.15088 23.4493 10.8794 23.5297 12.9997 23.5297C16.37 23.5297 19.041 22.6867 20.8639 20.8638C22.6868 19.041 23.5298 16.37 23.5297 12.9997C23.5297 10.8794 23.4492 9.15087 23.1802 7.76304C22.9097 6.36727 22.4356 5.24511 21.5949 4.40444C20.7543 3.56377 19.6322 3.08963 18.2364 2.81913C16.8486 2.55017 15.12 2.46973 12.9997 2.46973Z" />
</svg>
