<svg width="26" height="26" viewBox="0 0 26 26" fill="none" xmlns="http://www.w3.org/2000/svg">
<path d="M1.30005 13C1.30005 9.3657 1.30005 7.54853 1.89379 6.11512C2.68544 4.2039 4.2039 2.68544 6.11512 1.89379C7.54853 1.30005 9.3657 1.30005 13 1.30005V1.30005C16.6344 1.30005 18.4516 1.30005 19.885 1.89379C21.7962 2.68544 23.3147 4.2039 24.1063 6.11512C24.7 7.54853 24.7 9.3657 24.7 13V13C24.7 16.6344 24.7 18.4516 24.1063 19.885C23.3147 21.7962 21.7962 23.3147 19.885 24.1063C18.4516 24.7 16.6344 24.7 13 24.7V24.7C9.3657 24.7 7.54853 24.7 6.11512 24.1063C4.2039 23.3147 2.68544 21.7962 1.89379 19.885C1.30005 18.4516 1.30005 16.6344 1.30005 13V13Z" fill="#2A4AF5"/>
<path d="M13.0484 18.3423C12.351 18.3423 11.7281 18.2222 11.1797 17.9818C10.6346 17.7414 10.203 17.408 9.88477 16.9814C9.56992 16.5514 9.40065 16.0538 9.37695 15.4884H10.9715C10.9918 15.7965 11.0951 16.0639 11.2813 16.2908C11.4708 16.5142 11.718 16.6869 12.0227 16.8087C12.3273 16.9306 12.6659 16.9916 13.0383 16.9916C13.4479 16.9916 13.8102 16.9205 14.125 16.7783C14.4432 16.6361 14.6921 16.438 14.8715 16.1841C15.0509 15.9268 15.1406 15.6306 15.1406 15.2955C15.1406 14.9468 15.0509 14.6404 14.8715 14.3763C14.6954 14.1089 14.4365 13.899 14.0945 13.7466C13.756 13.5943 13.3464 13.5181 12.8656 13.5181H11.9871V12.2384H12.8656C13.2516 12.2384 13.5901 12.169 13.8813 12.0302C14.1758 11.8914 14.406 11.6985 14.5719 11.4513C14.7378 11.2008 14.8207 10.908 14.8207 10.5728C14.8207 10.2512 14.7479 9.97189 14.6023 9.73491C14.4602 9.49455 14.257 9.30666 13.993 9.17124C13.7323 9.03582 13.4242 8.96812 13.0688 8.96812C12.7302 8.96812 12.4137 9.03075 12.1191 9.15601C11.828 9.27788 11.591 9.45392 11.4082 9.68413C11.2254 9.91095 11.1272 10.1835 11.1137 10.5017H9.59531C9.61224 9.93973 9.77813 9.44546 10.093 9.0189C10.4112 8.59233 10.831 8.25887 11.3523 8.01851C11.8737 7.77814 12.4526 7.65796 13.0891 7.65796C13.756 7.65796 14.3315 7.7883 14.8156 8.04897C15.3031 8.30627 15.6789 8.64989 15.943 9.07983C16.2104 9.50978 16.3424 9.98036 16.3391 10.4916C16.3424 11.0738 16.1799 11.5681 15.8516 11.9744C15.5266 12.3806 15.0932 12.6531 14.5516 12.7919V12.8732C15.2422 12.9781 15.7771 13.2524 16.1563 13.6959C16.5388 14.1393 16.7284 14.6895 16.725 15.3462C16.7284 15.9184 16.5693 16.4313 16.2477 16.8849C15.9294 17.3386 15.4944 17.6957 14.9426 17.9564C14.3908 18.2137 13.7594 18.3423 13.0484 18.3423Z" fill="white"/>
</svg>
