<svg width="26" height="26" viewBox="0 0 26 26" fill="none" xmlns="http://www.w3.org/2000/svg">
<path d="M1.30005 13C1.30005 9.3657 1.30005 7.54853 1.89379 6.11512C2.68544 4.2039 4.2039 2.68544 6.11512 1.89379C7.54853 1.30005 9.3657 1.30005 13 1.30005V1.30005C16.6344 1.30005 18.4516 1.30005 19.885 1.89379C21.7962 2.68544 23.3147 4.2039 24.1063 6.11512C24.7 7.54853 24.7 9.3657 24.7 13V13C24.7 16.6344 24.7 18.4516 24.1063 19.885C23.3147 21.7962 21.7962 23.3147 19.885 24.1063C18.4516 24.7 16.6344 24.7 13 24.7V24.7C9.3657 24.7 7.54853 24.7 6.11512 24.1063C4.2039 23.3147 2.68544 21.7962 1.89379 19.885C1.30005 18.4516 1.30005 16.6344 1.30005 13V13Z" fill="#2A4AF5"/>
<path d="M9.58242 18.2709V17.1334L13.1016 13.4874C13.4773 13.0913 13.7871 12.7443 14.0309 12.4463C14.278 12.145 14.4625 11.859 14.5844 11.5881C14.7063 11.3173 14.7672 11.0295 14.7672 10.7249C14.7672 10.3795 14.6859 10.0816 14.5234 9.8311C14.3609 9.5772 14.1392 9.38254 13.8582 9.24712C13.5772 9.10832 13.2607 9.03892 12.9086 9.03892C12.5362 9.03892 12.2112 9.11509 11.9336 9.26743C11.656 9.41978 11.4427 9.63475 11.2938 9.91235C11.1448 10.19 11.0703 10.515 11.0703 10.8874H9.57227C9.57227 10.2543 9.71784 9.70077 10.009 9.22681C10.3001 8.75285 10.6996 8.38553 11.2074 8.12485C11.7152 7.86079 12.2924 7.72876 12.9391 7.72876C13.5924 7.72876 14.168 7.8591 14.6656 8.11978C15.1667 8.37707 15.5577 8.72915 15.8387 9.17603C16.1197 9.61952 16.2602 10.1206 16.2602 10.6792C16.2602 11.0651 16.1874 11.4426 16.0418 11.8116C15.8996 12.1806 15.6508 12.5919 15.2953 13.0456C14.9398 13.4958 14.4456 14.0426 13.8125 14.6858L11.7457 16.8491V16.9252H16.4277V18.2709H9.58242Z" fill="white"/>
</svg>
