<svg width="26" height="26" viewBox="0 0 26 26" fill="none" xmlns="http://www.w3.org/2000/svg">
<path fill-rule="evenodd" clip-rule="evenodd" d="M23.4002 12.9999C23.4002 11.4009 22.2455 10.0716 20.7245 9.80043C21.6083 8.53315 21.4849 6.77668 20.3542 5.64602C19.2235 4.51533 17.467 4.39193 16.1997 5.27584C15.9286 3.75469 14.5993 2.59985 13.0002 2.59985C11.4012 2.59985 10.0719 3.7546 9.80078 5.27567C8.5335 4.39185 6.77702 4.51527 5.64636 5.64593C4.51568 6.7766 4.39228 8.53311 5.27613 9.8004C3.75502 10.0715 2.60022 11.4008 2.60022 12.9999C2.60022 14.5988 3.75493 15.9281 5.27596 16.1993C4.39213 17.4666 4.51555 19.2231 5.64621 20.3537C6.77691 21.4844 8.53346 21.6078 9.80076 20.7239C10.0718 22.245 11.4012 23.3999 13.0002 23.3999C14.5992 23.3999 15.9285 22.2451 16.1997 20.7241C17.4669 21.6079 19.2234 21.4844 20.3541 20.3538C21.4847 19.2231 21.6081 17.4666 20.7243 16.1993C22.2454 15.9282 23.4002 14.5989 23.4002 12.9999Z" fill="#23ADA0"/>
<path fill-rule="evenodd" clip-rule="evenodd" d="M17.1907 10.5537L12.1702 17.0087L8.95703 14.5988L9.89303 13.3508L11.8799 14.841L15.9593 9.59595L17.1907 10.5537Z" fill="white"/>
</svg>
